<?xml version="1.0" standalone="no"?><!DOCTYPE svg PUBLIC "-//W3C//DTD SVG 1.1//EN" "http://www.w3.org/Graphics/SVG/1.1/DTD/svg11.dtd"><svg t="1668586483512" class="icon" viewBox="0 0 1024 1024" version="1.1" xmlns="http://www.w3.org/2000/svg" p-id="4529" xmlns:xlink="http://www.w3.org/1999/xlink" width="32" height="32"><path d="M800 304H32a8 8 0 0 1-8-8V208c0-26.464 21.536-48 48-48h688c26.464 0 48 21.536 48 48v88a8 8 0 0 1-8 8zM40 288h752v-80c0-17.648-14.352-32-32-32h-688c-17.648 0-32 14.352-32 32v80z" fill="#263238" p-id="4530"></path><path d="M104 264c-17.648 0-32-14.352-32-32s14.352-32 32-32 32 14.352 32 32-14.352 32-32 32z m0-48a16.016 16.016 0 0 0 0 32 16.016 16.016 0 0 0 0-32zM184 264c-17.648 0-32-14.352-32-32s14.352-32 32-32 32 14.352 32 32-14.352 32-32 32z m0-48a16.016 16.016 0 0 0 0 32 16.016 16.016 0 0 0 0-32zM816 72h-64a8 8 0 0 1 0-16h64a8 8 0 0 1 0 16z" fill="#263238" p-id="4531"></path><path d="M784 104a8 8 0 0 1-8-8V32a8 8 0 0 1 16 0v64a8 8 0 0 1-8 8zM928 176h-64a8 8 0 0 1 0-16h64a8 8 0 0 1 0 16z" fill="#263238" p-id="4532"></path><path d="M896 208a8 8 0 0 1-8-8v-64a8 8 0 0 1 16 0v64a8 8 0 0 1-8 8zM120 904h-32a8 8 0 0 1 0-16h32a8 8 0 0 1 0 16zM312 904h-160a8 8 0 0 1 0-16h160a8 8 0 0 1 0 16zM640 112h-32a8 8 0 0 1 0-16h32a8 8 0 0 1 0 16zM576 112H256a8 8 0 0 1 0-16h320a8 8 0 0 1 0 16zM448 736h-64c-13.232 0-24-10.768-24-24v-16c0-13.232 10.768-24 24-24h64c13.232 0 24 10.768 24 24v16c0 13.232-10.768 24-24 24z m-64-48a8 8 0 0 0-8 8v16a8 8 0 0 0 8 8h64a8 8 0 0 0 8-8v-16a8 8 0 0 0-8-8h-64zM448 904h-64c-13.232 0-24-10.768-24-24v-16c0-13.232 10.768-24 24-24h64c13.232 0 24 10.768 24 24v16c0 13.232-10.768 24-24 24z m-64-48a8 8 0 0 0-8 8v16a8 8 0 0 0 8 8h64a8 8 0 0 0 8-8v-16a8 8 0 0 0-8-8h-64z" fill="#263238" p-id="4533"></path><path d="M976 1000H432c-13.232 0-24-10.768-24-24v-48a8 8 0 0 1 16 0v48a8 8 0 0 0 8 8h544a8 8 0 0 0 8-8V600a8 8 0 0 0-8-8H432a8 8 0 0 0-8 8v48a8 8 0 0 1-16 0v-48c0-13.232 10.768-24 24-24h544c13.232 0 24 10.768 24 24V976c0 13.232-10.768 24-24 24z" fill="#263238" p-id="4534"></path><path d="M416 824a8 8 0 0 1-8-8v-56a8 8 0 0 1 16 0V816a8 8 0 0 1-8 8z" fill="#263238" p-id="4535"></path><path d="M384 816H72c-26.464 0-48-21.536-48-48V296A8 8 0 0 1 32 288h768a8 8 0 0 1 8 8v256a8 8 0 0 1-16 0V304h-752v464c0 17.648 14.352 32 32 32H384a8 8 0 0 1 0 16z" fill="#263238" p-id="4536"></path><path d="M112 376h160v160H112z" fill="#FF5252" p-id="4537"></path><path d="M272 544H112a8 8 0 0 1-8-8v-160A8 8 0 0 1 112 368h160a8 8 0 0 1 8 8v160a8 8 0 0 1-8 8z m-152-16h144v-144h-144v144zM272 592H112a8 8 0 0 1 0-16h160a8 8 0 0 1 0 16z" fill="#263238" p-id="4538"></path><path d="M336 376h160v160H336z" fill="#FFD740" p-id="4539"></path><path d="M496 544H336a8 8 0 0 1-8-8v-160a8 8 0 0 1 8-8h160a8 8 0 0 1 8 8v160a8 8 0 0 1-8 8z m-152-16h144v-144h-144v144zM384 592h-48a8 8 0 0 1 0-16h48a8 8 0 0 1 0 16z" fill="#263238" p-id="4540"></path><path d="M560 376h160v160H560z" fill="#40C4FF" p-id="4541"></path><path d="M720 544H560a8 8 0 0 1-8-8v-160a8 8 0 0 1 8-8h160a8 8 0 0 1 8 8v160a8 8 0 0 1-8 8z m-152-16h144v-144h-144v144zM720 592H560a8 8 0 0 1 0-16h160a8 8 0 0 1 0 16zM272 784a8 8 0 0 1-8-8V672h-144v104a8 8 0 0 1-16 0v-112A8 8 0 0 1 112 656h160a8 8 0 0 1 8 8v112a8 8 0 0 1-8 8zM800 908a7.904 7.904 0 0 1-4.032-1.088l-96-56a8 8 0 0 1-3.968-6.912v-112a8 8 0 0 1 3.968-6.912l96-56a7.92 7.92 0 0 1 8.064 0l96 56a8 8 0 0 1 3.968 6.912v112a8 8 0 0 1-3.968 6.912l-96 56a7.904 7.904 0 0 1-4.032 1.088z m-88-68.592l88 51.328 88-51.328v-102.816L800 685.264l-88 51.328v102.816z" fill="#263238" p-id="4542"></path><path d="M672 732h-128v112h128" fill="#4DB6AC" p-id="4543"></path><path d="M672 852h-128a8 8 0 0 1-8-8v-112a8 8 0 0 1 8-8h128a8 8 0 0 1 0 16h-120v96H672a8 8 0 0 1 0 16z" fill="#263238" p-id="4544"></path><path d="M800 908a8.032 8.032 0 0 1-8-8v-112a8 8 0 0 1 3.968-6.912l96-56a7.984 7.984 0 0 1 12.032 6.912v112a8 8 0 0 1-3.968 6.912l-96 56a7.904 7.904 0 0 1-4.032 1.088z m8-115.408v93.488l80-46.672V745.92l-80 46.672z" fill="#263238" p-id="4545"></path><path d="M800 788l-96-56" fill="#4DB6AC" p-id="4546"></path><path d="M800 796a7.824 7.824 0 0 1-4.016-1.088l-96-56a8 8 0 0 1 8.064-13.824l96 56a8 8 0 0 1-4.048 14.912z" fill="#263238" p-id="4547"></path></svg>