<svg width="3.7em" height="1em" fill="currentColor" viewBox="0 0 350.781 94.531" xmlns="http://www.w3.org/2000/svg">
  <g id="svgGroup" stroke-linecap="round" fill-rule="evenodd">
    <path class="path" d="M 82.031 94.531 L 83.203 94.531 A 5.817 5.817 0 0 0 86.525 91.05 A 7.383 7.383 0 0 0 86.719 90.43 Q 87.5 87.5 87.5 78.125 Q 86.328 71.484 86.328 64.844 L 85.938 62.109 A 227.914 227.914 0 0 1 85.083 56.592 Q 84.242 50.648 84.045 46.507 A 49.947 49.947 0 0 1 83.984 44.141 A 267.472 267.472 0 0 1 83.998 41.312 Q 84.05 36.486 84.293 35.115 A 2.558 2.558 0 0 1 84.375 34.766 Q 85.894 30.21 86.49 29.344 A 1.427 1.427 0 0 1 86.524 29.297 A 2.167 2.167 0 0 1 87.305 28.662 Q 87.625 28.502 88.03 28.405 A 4.857 4.857 0 0 1 88.477 28.32 A 37.515 37.515 0 0 0 89.274 28.198 Q 89.973 28.083 90.469 27.967 A 10.091 10.091 0 0 0 90.625 27.93 A 1.282 1.282 0 0 0 90.985 27.785 Q 91.406 27.527 91.406 26.953 L 90.234 25.391 Q 87.303 22.459 86.816 20.071 A 4.649 4.649 0 0 1 86.719 19.141 L 84.766 17.578 Q 79.517 15.479 77.716 14.163 A 5.448 5.448 0 0 1 77.344 13.867 A 7.111 7.111 0 0 0 75.939 12.895 A 5.439 5.439 0 0 0 74.024 12.305 A 22.625 22.625 0 0 1 72.412 12.07 Q 71.603 11.92 70.899 11.719 A 30.37 30.37 0 0 0 70.42 11.586 Q 69.458 11.328 69.141 11.328 Q 67.188 11.328 65.625 16.016 A 9.774 9.774 0 0 1 65.43 16.553 Q 65.227 17.059 65.025 17.356 A 1.558 1.558 0 0 1 64.844 17.578 Q 64.453 17.969 62.891 19.727 A 77.413 77.413 0 0 1 61.231 21.533 A 98.509 98.509 0 0 1 59.375 23.437 L 59.766 24.219 A 10.12 10.12 0 0 0 67.09 21.191 A 12.761 12.761 0 0 0 67.188 21.094 Q 71.919 17.818 72.242 16.577 A 0.68 0.68 0 0 0 72.266 16.406 A 43.625 43.625 0 0 1 72.727 16.501 Q 74.243 16.821 74.414 16.992 A 1.84 1.84 0 0 0 74.535 17.101 Q 74.745 17.276 75.156 17.552 A 17.779 17.779 0 0 0 75.195 17.578 A 1.515 1.515 0 0 1 75.48 17.842 Q 76.038 18.481 76.953 20.313 L 76.953 24.219 A 37.973 37.973 0 0 0 76.392 28.138 Q 76.201 30.191 76.176 32.492 A 64.419 64.419 0 0 0 76.172 33.203 L 73.828 33.594 L 67.578 32.813 A 2.462 2.462 0 0 0 66.498 33.033 Q 65.458 33.535 65.274 35.177 A 6.835 6.835 0 0 0 65.234 35.937 Q 65.234 37.052 63.468 37.107 A 6.044 6.044 0 0 1 63.281 37.109 L 63.281 36.328 Q 62.109 35.156 62.109 34.375 A 21.254 21.254 0 0 0 61.856 30.933 Q 60.854 24.861 55.888 24.619 A 8.612 8.612 0 0 0 55.469 24.609 Q 53.212 24.609 52.286 25.54 A 2.077 2.077 0 0 0 51.953 25.977 Q 51.172 27.344 49.609 28.516 L 51.172 29.688 A 10.619 10.619 0 0 0 51.306 30.178 Q 51.619 31.214 51.932 31.249 A 0.196 0.196 0 0 0 51.953 31.25 A 1.663 1.663 0 0 0 52.551 31.136 A 2.042 2.042 0 0 0 52.734 31.055 A 1.679 1.679 0 0 0 52.882 30.972 Q 53.024 30.882 53.083 30.792 A 0.232 0.232 0 0 0 53.125 30.664 A 1.673 1.673 0 0 1 53.132 30.546 Q 53.161 30.182 53.32 28.906 A 1.85 1.85 0 0 1 53.586 28.125 Q 54.034 27.428 55.182 27.353 A 4.406 4.406 0 0 1 55.469 27.344 A 2.855 2.855 0 0 0 55.784 27.612 Q 56.128 27.869 56.641 28.125 A 1.605 1.605 0 0 1 57.355 28.851 Q 57.536 29.202 57.617 29.688 A 69.257 69.257 0 0 1 57.727 30.371 Q 57.91 31.543 58.203 33.594 Q 58.203 43.155 57.454 45.227 A 2.703 2.703 0 0 1 57.422 45.312 A 26.718 26.718 0 0 1 55.895 48.486 A 30.224 30.224 0 0 1 55.469 49.219 Q 55.779 49.219 55.843 49.465 A 0.576 0.576 0 0 1 55.859 49.609 A 0.478 0.478 0 0 0 56.037 49.98 Q 56.116 50.05 56.231 50.108 A 1.606 1.606 0 0 0 56.445 50.195 Q 56.997 50.379 57.029 51.081 A 1.949 1.949 0 0 1 57.031 51.172 A 1.696 1.696 0 0 1 57.005 51.407 Q 56.888 52.136 56.25 54.688 A 93.968 93.968 0 0 0 55.719 56.921 Q 55.322 58.691 55.078 60.156 A 13.804 13.804 0 0 1 54.62 62.024 Q 54.102 63.672 53.125 65.625 Q 51.625 68.626 51.385 68.745 A 0.041 0.041 0 0 1 51.367 68.75 Q 51.172 68.75 49.609 69.141 Q 48.313 69.141 48.092 67.527 A 5.41 5.41 0 0 1 48.047 66.797 L 48.438 64.844 A 624.282 624.282 0 0 0 47.977 64.291 Q 46.558 62.592 46.317 62.333 A 1.149 1.149 0 0 0 46.289 62.305 Q 46.094 62.109 44.531 58.984 A 318.149 318.149 0 0 0 46.088 56.207 Q 50.219 48.743 50.993 46.216 A 3.342 3.342 0 0 0 51.172 45.312 Q 52.971 41.715 53.279 41.265 A 0.41 0.41 0 0 1 53.32 41.211 A 2.05 2.05 0 0 0 53.428 41.09 Q 53.679 40.79 54.36 39.888 A 159.979 159.979 0 0 0 54.688 39.453 Q 52.344 33.984 48.438 30.859 A 41.095 41.095 0 0 0 47.055 29.797 Q 44.845 28.179 43.587 27.83 A 2.343 2.343 0 0 0 42.969 27.734 A 75.336 75.336 0 0 0 41.474 27.748 Q 39.262 27.792 38.253 27.978 A 3.034 3.034 0 0 0 37.695 28.125 Q 36.719 28.516 33.594 31.641 L 32.031 32.031 A 5.368 5.368 0 0 1 31.663 32.02 Q 31.111 31.982 30.938 31.817 A 0.236 0.236 0 0 1 30.859 31.641 A 1.112 1.112 0 0 1 30.967 31.21 Q 31.248 30.561 32.268 29.469 A 22.903 22.903 0 0 1 32.813 28.906 Q 34.509 27.21 35.026 26.398 A 2.537 2.537 0 0 0 35.156 26.172 L 37.109 22.656 A 232.131 232.131 0 0 0 38.849 22.65 Q 43.615 22.614 44.383 22.368 A 0.173 0.173 0 0 0 44.531 22.266 Q 44.531 21.888 44.713 20.965 A 25.015 25.015 0 0 1 44.727 20.898 A 2.119 2.119 0 0 1 44.934 20.349 Q 45.364 19.522 46.601 18.247 A 25.569 25.569 0 0 1 46.875 17.969 Q 46.875 16.797 45.508 15.82 A 17.85 17.85 0 0 1 44.89 15.36 Q 44.044 14.698 43.75 14.258 A 1.515 1.515 0 0 0 43.486 13.973 Q 42.847 13.416 41.016 12.5 A 25.192 25.192 0 0 1 39.42 12.454 Q 37.086 12.305 36.316 11.674 A 0.927 0.927 0 0 1 35.938 10.938 A 12.862 12.862 0 0 0 33.722 3.787 A 18.871 18.871 0 0 0 31.25 0.781 L 25 0 L 21.484 1.563 L 21.484 1.953 A 14.434 14.434 0 0 1 23.585 2.093 Q 26.036 2.456 27.152 3.752 A 3.594 3.594 0 0 1 27.734 4.688 A 4.867 4.867 0 0 0 28.272 5.786 Q 28.674 6.409 29.297 7.031 Q 30.469 8.203 30.469 13.281 Q 29.688 16.016 28.516 16.602 A 5.86 5.86 0 0 0 27.8 17.036 Q 26.798 17.733 25.391 19.141 Q 20.381 24.151 18.977 24.571 A 0.804 0.804 0 0 1 18.75 24.609 L 10.547 19.922 A 0.982 0.982 0 0 0 10.686 20.342 Q 11.247 21.404 14.063 24.219 A 31.667 31.667 0 0 0 15.032 25.151 Q 16.663 26.648 17.578 26.953 A 5.321 5.321 0 0 1 18.773 27.516 A 4.512 4.512 0 0 1 19.531 28.125 Q 20.166 28.759 21.83 28.879 A 11.592 11.592 0 0 0 22.656 28.906 L 23.438 30.469 L 21.484 32.422 Q 18.359 37.109 17.188 37.109 A 1.112 1.112 0 0 1 16.757 37.002 Q 16.108 36.721 15.016 35.701 A 22.903 22.903 0 0 1 14.453 35.156 Q 11.719 35.156 9.961 34.57 Q 8.24 33.997 7.83 33.985 A 0.58 0.58 0 0 0 7.813 33.984 Q 7.435 33.984 6.691 34.533 A 7.87 7.87 0 0 0 6.641 34.57 A 3.904 3.904 0 0 1 5.591 35.123 A 5.345 5.345 0 0 1 4.688 35.352 Q 3.714 35.514 3.01 37.159 A 9.499 9.499 0 0 0 2.734 37.891 L 4.297 38.672 Q 5.469 37.5 7.031 36.719 A 10.319 10.319 0 0 1 7.935 36.755 Q 8.822 36.834 9.375 37.08 A 2.011 2.011 0 0 1 9.766 37.305 A 5.447 5.447 0 0 0 10.33 37.671 Q 10.936 38.017 11.815 38.363 A 19.039 19.039 0 0 0 12.109 38.477 Q 13.517 39.004 13.657 41.592 A 11.057 11.057 0 0 1 13.672 42.188 Q 13.672 42.578 13.281 43.555 A 51.989 51.989 0 0 0 13.098 44.019 Q 12.902 44.523 12.77 44.899 A 14.762 14.762 0 0 0 12.695 45.117 A 1.934 1.934 0 0 0 12.629 45.44 Q 12.523 46.197 12.504 48.256 A 104.767 104.767 0 0 0 12.5 49.219 Q 12.5 52.293 16.657 54.988 A 19.353 19.353 0 0 0 16.797 55.078 L 21.484 60.156 L 22.266 58.984 L 22.266 57.031 L 21.68 56.445 Q 21.509 56.275 21.19 49.118 A 775.244 775.244 0 0 1 21.094 46.875 A 98.985 98.985 0 0 1 21.101 45.66 Q 21.127 43.506 21.257 42.897 A 1.158 1.158 0 0 1 21.289 42.773 A 1.27 1.27 0 0 1 21.46 42.47 Q 21.99 41.721 24.024 39.844 A 75.441 75.441 0 0 1 24.625 39.294 Q 26.611 37.5 26.953 37.5 A 1.171 1.171 0 0 0 27.196 37.471 Q 27.557 37.393 28.125 37.109 L 28.906 37.109 L 30.078 38.672 A 2.513 2.513 0 0 1 29.247 40.543 Q 28.905 40.872 28.422 41.153 A 5.762 5.762 0 0 1 28.32 41.211 A 9.565 9.565 0 0 0 27.332 41.858 Q 25.684 43.066 23.047 45.703 L 24.219 53.516 Q 24.219 55.916 23.918 56.36 A 0.246 0.246 0 0 1 23.828 56.445 A 0.844 0.844 0 0 0 23.626 56.582 A 0.589 0.589 0 0 0 23.438 57.031 L 24.219 58.984 L 22.266 60.547 A 2.285 2.285 0 0 1 21.777 61.829 Q 20.313 63.916 14.453 66.992 Q 6.641 71.094 5.078 71.094 L 3.125 70.703 Q 0.427 70.703 0.058 72.741 A 3.914 3.914 0 0 0 0 73.437 A 0.792 0.792 0 0 0 0.191 73.926 Q 0.57 74.412 1.705 74.897 A 11.194 11.194 0 0 0 1.953 75 Q 5.579 77.308 8.093 77.668 A 6.29 6.29 0 0 0 8.984 77.734 Q 13.281 77.734 22.656 70.703 A 6.092 6.092 0 0 1 22.675 70.691 Q 23.179 70.357 23.683 70.169 A 3.732 3.732 0 0 1 25 69.922 A 11.004 11.004 0 0 0 25.405 69.915 Q 26.205 69.885 26.366 69.728 A 0.187 0.187 0 0 0 26.367 69.727 A 1.84 1.84 0 0 0 26.476 69.606 Q 26.651 69.396 26.927 68.985 A 17.779 17.779 0 0 0 26.953 68.945 Q 27.344 68.359 28.516 68.359 L 28.516 73.438 A 3.796 3.796 0 0 1 27.015 73.117 A 5.212 5.212 0 0 1 26.172 72.656 L 26.953 80.859 Q 25.99 82.786 25.818 83.657 A 1.729 1.729 0 0 0 25.781 83.984 Q 25.781 85.547 28.711 89.844 A 139.14 139.14 0 0 0 29.404 90.851 Q 31.628 94.052 32.011 94.138 A 0.091 0.091 0 0 0 32.031 94.141 Q 32.294 94.141 32.644 94.052 A 5.044 5.044 0 0 0 33.008 93.945 A 0.958 0.958 0 0 0 33.388 93.696 Q 33.648 93.429 33.859 92.916 A 5.235 5.235 0 0 0 33.984 92.578 A 680.265 680.265 0 0 1 34.009 86.624 Q 34.18 67.163 35.547 66.992 Q 37.109 66.797 37.891 66.406 A 91.855 91.855 0 0 1 40.991 66.455 Q 45.313 66.602 47.656 67.188 L 47.266 73.438 A 97.113 97.113 0 0 0 47.275 74.814 Q 47.338 79.287 47.844 79.489 A 0.14 0.14 0 0 0 47.852 79.492 A 1.969 1.969 0 0 1 48.172 79.629 Q 48.342 79.722 48.461 79.841 A 0.915 0.915 0 0 1 48.633 80.078 Q 48.8 80.412 50.249 81.886 A 91.092 91.092 0 0 0 50.781 82.422 L 50.781 83.594 Q 51.472 83.594 52.773 82.221 A 16.485 16.485 0 0 0 53.125 81.836 A 13.48 13.48 0 0 0 53.734 81.104 Q 54.688 79.865 54.688 79.102 A 7.727 7.727 0 0 1 54.7 78.65 Q 54.736 78.027 54.883 77.734 A 3.602 3.602 0 0 1 55.005 77.509 Q 55.071 77.398 55.137 77.309 A 1.433 1.433 0 0 1 55.274 77.148 A 1.428 1.428 0 0 0 55.408 76.991 Q 55.472 76.905 55.536 76.798 A 3.566 3.566 0 0 0 55.664 76.563 Q 55.859 76.172 56.25 75.977 A 0.685 0.685 0 0 0 56.455 75.807 Q 56.715 75.507 56.975 74.772 A 9.107 9.107 0 0 0 57.031 74.609 A 480.232 480.232 0 0 1 57.587 73.044 Q 59.328 68.164 59.726 67.449 A 0.982 0.982 0 0 1 59.766 67.383 A 2.378 2.378 0 0 1 59.949 67.14 Q 60.248 66.797 60.547 66.797 A 2.664 2.664 0 0 1 61.013 66.834 Q 61.762 66.968 61.914 67.578 A 4.316 4.316 0 0 0 62.046 67.995 Q 62.291 68.666 62.885 69.897 A 64.378 64.378 0 0 0 63.281 70.703 A 67.724 67.724 0 0 1 64.325 72.882 Q 64.8 73.923 65.184 74.874 A 41.154 41.154 0 0 1 65.234 75 A 96.921 96.921 0 0 0 65.926 76.62 Q 67.304 79.765 67.941 80.44 A 1.374 1.374 0 0 0 67.969 80.469 Q 68.693 81.193 69.922 83.429 A 48.848 48.848 0 0 1 70.117 83.789 A 19.139 19.139 0 0 0 73.438 88.281 Q 75.471 91.186 77.289 91.931 A 3.223 3.223 0 0 0 78.516 92.188 A 2.351 2.351 0 0 0 79.228 92.671 A 2.887 2.887 0 0 0 79.492 92.773 A 1.066 1.066 0 0 1 80.093 93.282 Q 80.19 93.453 80.254 93.676 A 2.385 2.385 0 0 1 80.274 93.75 Q 80.469 94.531 82.031 94.531 Z M 123.438 90.625 L 126.172 93.75 A 3.04 3.04 0 0 0 126.906 93.398 A 2.168 2.168 0 0 0 127.734 92.383 A 6.029 6.029 0 0 1 127.905 91.993 Q 128.197 91.391 128.489 91.225 A 0.569 0.569 0 0 1 128.516 91.211 Q 128.906 91.016 128.906 90.43 A 1.417 1.417 0 0 1 128.961 90.107 Q 129.156 89.353 130.038 87.309 A 101.88 101.88 0 0 1 130.469 86.328 Q 133.842 79.208 133.979 76.042 A 6.038 6.038 0 0 0 133.984 75.781 A 14.233 14.233 0 0 1 134.18 73.438 Q 134.374 72.269 137.093 72.266 A 12.618 12.618 0 0 1 137.109 72.266 L 137.891 73.438 A 18.988 18.988 0 0 0 139.261 80.773 Q 141.009 84.991 144.986 88.036 A 22.227 22.227 0 0 0 145.313 88.281 A 4.858 4.858 0 0 0 146.314 89.002 Q 148.115 90.038 152.287 91.352 A 108.601 108.601 0 0 0 155.078 92.187 A 481.473 481.473 0 0 0 161.615 92.146 Q 174.707 91.968 178.516 91.016 A 18.301 18.301 0 0 0 180.636 90.358 Q 182.822 89.518 183.851 88.292 A 4.046 4.046 0 0 0 184.375 87.5 A 5.219 5.219 0 0 1 185.333 86.151 A 4.981 4.981 0 0 1 185.352 86.133 A 1.585 1.585 0 0 0 185.685 85.615 Q 185.891 85.122 185.929 84.35 A 7.424 7.424 0 0 0 185.938 83.984 A 59.692 59.692 0 0 0 185.91 82.083 Q 185.809 78.955 185.352 77.734 Q 184.903 76.538 184.569 75.8 A 11.782 11.782 0 0 0 184.375 75.391 Q 184.035 74.71 183.991 72.548 A 33.217 33.217 0 0 1 183.984 71.875 A 0.951 0.951 0 0 1 183.812 71.617 Q 183.548 71.072 183.399 69.727 Q 183.23 68.21 183.062 67.566 A 2.918 2.918 0 0 0 183.008 67.383 Q 182.813 66.797 182.813 65.43 Q 182.813 64.54 182.647 63.898 A 3.12 3.12 0 0 0 182.422 63.281 A 0.564 0.564 0 0 0 181.923 63.591 Q 181.641 64.059 181.641 65.234 A 13.246 13.246 0 0 1 180.224 71.115 A 17.816 17.816 0 0 1 178.711 73.633 Q 176.343 76.948 174.485 78.477 A 8.708 8.708 0 0 1 173.633 79.102 A 9.739 9.739 0 0 1 172.441 79.728 Q 169.861 80.896 164.063 82.422 Q 162.864 83.021 160.285 83.161 A 31.43 31.43 0 0 1 158.594 83.203 Q 150 83.203 148.438 83.008 A 2.443 2.443 0 0 1 147.363 82.574 Q 146.579 82.037 145.794 80.861 A 13.347 13.347 0 0 1 145.313 80.078 L 144.531 79.688 A 62.173 62.173 0 0 1 144.608 76.498 Q 144.758 73.586 145.203 71.559 A 16.777 16.777 0 0 1 145.313 71.094 A 13.293 13.293 0 0 0 145.483 70.544 Q 145.639 70 145.684 69.621 A 2.413 2.413 0 0 0 145.703 69.336 A 0.767 0.767 0 0 1 145.84 69 Q 146.325 68.199 148.527 65.939 A 118.621 118.621 0 0 1 149.609 64.844 A 132.629 132.629 0 0 0 155.202 60.467 Q 165.003 52.325 165.625 47.656 Q 165.625 45.373 157.097 41.236 A 90.596 90.596 0 0 0 156.641 41.016 Q 155.927 41.016 155.05 41.831 A 6.383 6.383 0 0 0 154.883 41.992 A 3.767 3.767 0 0 1 153.515 42.852 Q 152.981 43.051 152.337 43.141 A 7.026 7.026 0 0 1 152.149 43.164 A 10.811 10.811 0 0 0 151.126 43.324 Q 150.086 43.542 149.414 43.945 Q 148.536 44.472 148.447 45.473 A 2.614 2.614 0 0 0 148.438 45.703 A 0.564 0.564 0 0 0 148.748 46.202 Q 149.216 46.484 150.391 46.484 A 2.053 2.053 0 0 0 150.945 46.4 Q 151.468 46.253 152.119 45.848 A 8.455 8.455 0 0 0 152.344 45.703 L 155.078 45.703 Q 155.078 47.111 153.016 50.422 A 45.729 45.729 0 0 1 152.539 51.172 A 219.204 219.204 0 0 1 151.941 52.087 Q 150.142 54.826 149.846 55.057 A 0.081 0.081 0 0 1 149.805 55.078 A 0.306 0.306 0 0 0 149.689 55.105 Q 149.525 55.173 149.274 55.415 A 4.073 4.073 0 0 0 149.219 55.469 Q 149.219 55.159 148.973 55.095 A 0.576 0.576 0 0 0 148.828 55.078 A 0.604 0.604 0 0 1 148.496 54.986 Q 148.343 54.889 148.242 54.688 A 4.139 4.139 0 0 0 148.129 54.479 Q 147.935 54.143 147.532 53.528 A 60.118 60.118 0 0 0 147.266 53.125 Q 144.922 51.563 139.063 51.563 A 4.547 4.547 0 0 0 135.295 53.694 Q 132.759 57.187 132.031 66.406 A 9.7 9.7 0 0 1 131.356 68.998 A 7.761 7.761 0 0 1 129.688 71.484 L 129.688 70.703 A 1.949 1.949 0 0 1 129.555 70.204 Q 129.344 68.956 129.306 65.127 A 183.956 183.956 0 0 1 129.297 63.281 Q 128.995 62.979 128.458 62.793 A 3.966 3.966 0 0 0 128.125 62.695 Q 127.344 62.5 127.344 61.914 Q 127.344 61.435 127.083 60.566 A 14.102 14.102 0 0 0 126.953 60.156 A 3.04 3.04 0 0 1 127.305 59.422 A 2.168 2.168 0 0 1 128.32 58.594 A 1.891 1.891 0 0 0 128.869 58.234 Q 129.617 57.562 130.469 55.859 A 357.12 357.12 0 0 1 131.39 54.849 Q 134.424 51.538 134.766 51.367 A 0.998 0.998 0 0 0 134.97 51.222 Q 135.339 50.898 135.938 50 Q 136.719 48.828 137.305 48.047 Q 137.891 47.266 138.086 46.68 Q 138.252 46.181 141.103 43.281 A 179.082 179.082 0 0 1 142.188 42.188 Q 148.828 35.547 153.516 33.203 A 2.49 2.49 0 0 0 153.956 33.167 Q 154.197 33.124 154.386 33.028 A 1.158 1.158 0 0 0 154.688 32.813 L 154.688 29.688 Q 154.688 26.364 152.142 25.868 A 5.081 5.081 0 0 0 151.172 25.781 A 0.472 0.472 0 0 1 150.903 25.689 Q 150.729 25.569 150.555 25.294 A 3.362 3.362 0 0 1 150.391 25 L 151.563 23.438 A 148.98 148.98 0 0 0 152.387 22.607 Q 155.021 19.931 155.077 19.547 A 0.108 0.108 0 0 0 155.078 19.531 L 155.078 10.547 A 5.648 5.648 0 0 0 154.87 10.352 Q 154.389 9.92 153.123 8.877 A 234.196 234.196 0 0 0 152.539 8.398 Q 150.391 6.641 147.07 3.906 Q 143.75 1.172 141.797 1.172 A 15.665 15.665 0 0 0 140.353 1.604 A 11.475 11.475 0 0 0 139.063 2.148 A 10.575 10.575 0 0 0 138.657 2.361 Q 137.992 2.731 137.769 3.012 A 0.655 0.655 0 0 0 137.695 3.125 Q 137.5 3.516 137.109 3.711 A 0.844 0.844 0 0 0 136.908 3.848 A 0.589 0.589 0 0 0 136.719 4.297 Q 136.719 4.682 135.958 6.209 A 34.632 34.632 0 0 1 135.938 6.25 Q 135.156 7.813 134.375 9.766 A 115.182 115.182 0 0 1 132.485 14.238 Q 128.345 23.438 125.781 23.438 A 0.287 0.287 0 0 1 125.58 23.334 Q 125.29 23.035 125 21.875 Q 124.609 20.313 124.219 19.922 A 2.351 2.351 0 0 1 123.735 19.209 A 2.887 2.887 0 0 1 123.633 18.945 Q 123.452 18.401 122.092 17.689 A 12.879 12.879 0 0 0 121.875 17.578 L 119.922 21.875 A 6.903 6.903 0 0 0 121.043 25.519 Q 122.494 27.877 125.825 30.236 A 34.572 34.572 0 0 0 127.344 31.25 L 130.078 33.594 A 162.579 162.579 0 0 1 125.407 36.78 Q 118.135 41.541 114.298 42.639 A 7.405 7.405 0 0 1 112.305 42.969 A 20.221 20.221 0 0 0 110.301 43.06 Q 107.434 43.347 106.25 44.531 L 109.375 45.313 L 109.766 44.922 L 110.547 45.313 A 24.3 24.3 0 0 0 117.578 49.609 L 123.828 49.219 L 123.828 49.609 L 116.406 58.594 Q 111.557 63.443 110.804 64.73 A 1.984 1.984 0 0 0 110.742 64.844 A 10.806 10.806 0 0 1 110.376 65.519 Q 109.973 66.199 109.57 66.602 Q 108.984 67.188 108.594 67.969 A 1.688 1.688 0 0 1 108.32 68.372 A 1.178 1.178 0 0 1 107.422 68.75 Q 103.089 73.083 100.84 75.945 A 27.504 27.504 0 0 0 99.805 77.344 A 34.47 34.47 0 0 1 99.051 78.401 Q 97.587 80.366 96.941 80.464 A 0.438 0.438 0 0 1 96.875 80.469 Q 93.75 81.25 93.75 82.422 A 4.499 4.499 0 0 0 93.905 83.659 Q 94.302 85.045 95.718 85.414 A 4.604 4.604 0 0 0 96.875 85.547 A 16.551 16.551 0 0 0 98.394 85.483 Q 100.665 85.272 101.563 84.375 Q 105.054 82.048 115.478 71.631 A 534.703 534.703 0 0 0 115.625 71.484 L 123.438 65.234 L 123.438 69.141 A 302.277 302.277 0 0 0 123.305 70.356 Q 123.082 72.442 123.052 73.079 A 3.592 3.592 0 0 0 123.047 73.242 A 1.332 1.332 0 0 1 122.999 73.553 Q 122.809 74.304 121.875 76.172 Q 119.531 77.344 119.531 78.125 A 10.614 10.614 0 0 0 119.606 79.417 Q 119.702 80.2 119.922 80.859 L 119.531 82.813 A 9.434 9.434 0 0 0 122.63 89.923 A 12.8 12.8 0 0 0 123.438 90.625 Z M 279.297 67.578 L 280.078 59.766 A 10.197 10.197 0 0 0 286.2 57.705 A 14.282 14.282 0 0 0 287.891 56.25 A 41.206 41.206 0 0 1 289.797 54.452 Q 293.082 51.563 294.922 51.563 L 300 53.516 Q 298.438 55.469 296.289 57.422 A 15.164 15.164 0 0 0 295.452 58.239 Q 294.226 59.541 294.146 60.426 A 1.349 1.349 0 0 0 294.141 60.547 Q 295.703 60.547 299.609 57.422 L 303.125 55.469 A 218.013 218.013 0 0 1 304.05 54.825 Q 306.494 53.133 307.311 52.685 A 2.109 2.109 0 0 1 307.617 52.539 Q 308.203 52.344 308.789 51.758 Q 309.375 51.172 312.305 48.828 A 14.461 14.461 0 0 0 313.517 47.751 Q 314.73 46.533 315.086 45.43 A 2.915 2.915 0 0 0 315.234 44.531 A 2.053 2.053 0 0 0 315.15 43.976 Q 315.003 43.454 314.598 42.803 A 8.455 8.455 0 0 0 314.453 42.578 A 15.725 15.725 0 0 1 313.104 40.082 A 17.257 17.257 0 0 1 313.086 40.039 A 1.996 1.996 0 0 0 311.973 38.975 Q 311.26 38.672 310.156 38.672 A 69.402 69.402 0 0 0 308.396 38.692 Q 304.955 38.78 304.13 39.242 A 1.053 1.053 0 0 0 304.102 39.258 A 1.98 1.98 0 0 0 303.575 39.748 Q 302.938 40.564 302.394 42.406 A 20.091 20.091 0 0 0 302.344 42.578 Q 301.982 43.665 299.939 45.76 A 36.956 36.956 0 0 1 299.609 46.094 Q 297.266 48.438 296.484 48.438 L 296.484 47.266 A 1204.447 1204.447 0 0 0 298.041 43.958 Q 302.639 34.144 303.079 32.646 A 0.938 0.938 0 0 0 303.125 32.422 L 306.25 28.906 L 308.203 31.25 A 6.274 6.274 0 0 0 308.891 32.725 Q 310.263 34.99 314.01 38.681 A 98.782 98.782 0 0 0 315.625 40.234 Q 328.425 53.035 329.977 53.498 A 0.36 0.36 0 0 0 330.078 53.516 L 345.313 53.906 A 59.884 59.884 0 0 0 346.415 53.897 Q 348.218 53.864 348.828 53.711 A 2.164 2.164 0 0 0 349.326 53.509 Q 349.797 53.254 350.375 52.731 A 11.296 11.296 0 0 0 350.781 52.344 Q 350.781 49.609 340.234 46.094 Q 331.346 44.02 325.378 40.372 A 30.618 30.618 0 0 1 321.875 37.891 A 63.997 63.997 0 0 1 318.147 35.554 Q 312.303 31.58 310.999 28.287 A 6.166 6.166 0 0 1 310.938 28.125 L 308.594 24.609 A 1.245 1.245 0 0 1 308.612 24.389 Q 308.653 24.159 308.789 24.023 Q 308.972 23.841 309.668 22.974 A 94.778 94.778 0 0 0 309.766 22.852 Q 310.41 22.046 310.523 21.639 A 0.586 0.586 0 0 0 310.547 21.484 A 3.75 3.75 0 0 0 310.409 20.544 Q 310.028 19.092 308.594 16.797 A 16.022 16.022 0 0 0 306 13.913 A 10.164 10.164 0 0 0 299.219 11.328 A 6.152 6.152 0 0 0 298.956 11.609 Q 298.689 11.913 298.354 12.352 A 22.885 22.885 0 0 0 298.242 12.5 A 4.928 4.928 0 0 1 297.357 13.4 A 6.298 6.298 0 0 1 296.68 13.867 A 3.002 3.002 0 0 0 296.235 14.187 Q 296.011 14.385 295.881 14.603 A 1.212 1.212 0 0 0 295.703 15.234 A 1.425 1.425 0 0 0 295.783 15.732 Q 296.034 16.406 297.07 16.406 A 5.347 5.347 0 0 1 298.192 16.518 A 3.975 3.975 0 0 1 299.414 16.992 A 6.085 6.085 0 0 1 299.746 17.205 Q 300.391 17.651 300.391 17.969 A 14.32 14.32 0 0 1 300.098 20.654 Q 299.219 25.195 295.703 32.813 L 295.703 33.203 A 245.078 245.078 0 0 1 294.188 36.975 Q 291.113 44.434 289.844 45.703 A 2.839 2.839 0 0 0 289.656 45.918 Q 289.16 46.533 287.891 48.438 A 44.044 44.044 0 0 1 286.254 50.721 Q 285.486 51.727 284.593 52.796 A 73.172 73.172 0 0 1 283.984 53.516 A 43.625 43.625 0 0 1 284.079 53.055 Q 284.399 51.538 284.57 51.367 A 0.828 0.828 0 0 0 284.677 51.231 Q 284.774 51.082 284.87 50.838 A 4.97 4.97 0 0 0 284.961 50.586 A 3.507 3.507 0 0 0 285.041 50.291 Q 285.23 49.487 285.547 47.266 A 73.359 73.359 0 0 0 285.718 45.996 Q 285.938 44.238 285.938 43.359 Q 283.203 45.703 280.078 47.266 L 279.688 47.266 A 164.52 164.52 0 0 1 279.741 42.872 Q 279.955 34.909 281.021 33.117 A 1.547 1.547 0 0 1 281.25 32.812 Q 281.25 31.457 285.072 31.277 A 26.862 26.862 0 0 1 286.328 31.25 A 1.838 1.838 0 0 0 287.022 31.089 Q 288.008 30.681 289.514 29.23 A 24.435 24.435 0 0 0 289.844 28.906 L 289.844 27.344 L 288.867 26.367 L 287.695 25.195 Q 287.264 24.764 287.15 24.438 A 0.667 0.667 0 0 1 287.109 24.219 L 281.641 23.828 A 346.174 346.174 0 0 1 281.647 21.71 Q 281.69 14.746 282.031 14.063 A 10.86 10.86 0 0 0 282.324 13.422 Q 282.568 12.842 282.813 12.109 A 4.334 4.334 0 0 0 282.324 10.156 Q 282.004 9.515 281.473 8.875 A 9.715 9.715 0 0 0 280.859 8.203 A 55.775 55.775 0 0 0 279.437 6.827 Q 277.427 4.955 276.254 4.339 A 4.61 4.61 0 0 0 276.172 4.297 L 272.656 5.078 A 2.855 2.855 0 0 1 272.342 5.347 Q 271.997 5.603 271.484 5.859 A 2.784 2.784 0 0 0 271.063 6.116 Q 270.843 6.279 270.702 6.469 A 1.295 1.295 0 0 0 270.508 6.836 A 1.969 1.969 0 0 1 270.371 7.157 Q 270.278 7.327 270.159 7.445 A 0.915 0.915 0 0 1 269.922 7.617 A 0.844 0.844 0 0 0 269.72 7.754 A 0.589 0.589 0 0 0 269.531 8.203 L 269.922 12.109 Q 272.057 12.109 272.896 11.137 A 2.027 2.027 0 0 0 273.047 10.937 A 3.2 3.2 0 0 1 273.573 10.32 A 2.081 2.081 0 0 1 275 9.766 Q 276.563 12.5 276.563 14.844 L 275.781 25 L 273.438 26.172 L 273.828 26.172 L 275.781 28.516 A 291.643 291.643 0 0 0 273.756 30.15 Q 269.739 33.423 268.945 34.375 A 12.398 12.398 0 0 1 268.288 35.096 Q 267.539 35.862 266.376 36.864 A 59.328 59.328 0 0 1 265.625 37.5 L 259.766 41.797 L 252.344 42.188 A 0.604 0.604 0 0 0 252.435 42.52 Q 252.533 42.673 252.734 42.773 A 2.438 2.438 0 0 0 252.963 42.867 Q 253.517 43.071 255.112 43.535 A 165.72 165.72 0 0 0 255.859 43.75 Q 260.547 46.094 262.891 46.094 A 0.136 0.136 0 0 0 263.001 46.185 Q 263.655 46.44 268.21 46.478 A 206.598 206.598 0 0 0 269.922 46.484 Q 270.683 45.723 270.888 45.333 A 1.153 1.153 0 0 0 270.899 45.312 A 1.083 1.083 0 0 1 271.047 45.111 Q 271.533 44.556 273.438 42.969 L 273.438 53.516 Q 266.849 59.758 261.491 60.458 A 10.288 10.288 0 0 1 260.156 60.547 A 0.613 0.613 0 0 0 259.766 60.744 Q 259.079 61.374 257.989 64.02 A 45.006 45.006 0 0 0 257.813 64.453 Q 257.813 65.818 258.259 66.139 A 0.516 0.516 0 0 0 258.399 66.211 Q 258.896 66.377 259.675 67.81 A 18.107 18.107 0 0 1 259.961 68.359 A 13.45 13.45 0 0 0 262.5 71.875 A 8.07 8.07 0 0 0 263.224 73.289 Q 263.774 74.134 264.497 74.692 A 4.999 4.999 0 0 0 264.649 74.805 Q 266.016 75.781 266.406 76.758 Q 266.769 77.664 268.475 79.409 A 34.285 34.285 0 0 0 268.75 79.687 A 135.53 135.53 0 0 0 269.612 81.713 Q 270.932 84.741 271.68 85.938 A 54.979 54.979 0 0 1 271.909 86.307 Q 272.651 87.516 272.656 87.693 A 0.083 0.083 0 0 1 272.656 87.695 A 0.433 0.433 0 0 0 272.705 87.891 Q 272.737 87.955 272.79 88.019 A 0.971 0.971 0 0 0 272.852 88.086 A 0.828 0.828 0 0 1 272.958 88.222 Q 273.055 88.371 273.151 88.616 A 4.97 4.97 0 0 1 273.242 88.867 A 1.969 1.969 0 0 0 273.379 89.188 Q 273.472 89.358 273.591 89.476 A 0.915 0.915 0 0 0 273.828 89.648 A 4.139 4.139 0 0 1 274.036 89.762 Q 274.372 89.955 274.988 90.359 A 60.118 60.118 0 0 1 275.391 90.625 A 7.965 7.965 0 0 0 278.725 87.021 Q 280.162 84.138 280.415 79.433 A 39.016 39.016 0 0 0 280.469 77.344 A 13.565 13.565 0 0 1 280.158 75.693 A 10.599 10.599 0 0 1 280.078 74.414 Q 280.078 73.047 279.688 70.898 A 37.881 37.881 0 0 1 279.517 69.885 Q 279.348 68.792 279.309 68.02 A 8.693 8.693 0 0 1 279.297 67.578 Z M 232.031 52.344 L 241.406 56.25 A 14.112 14.112 0 0 0 244.164 55.993 A 10.705 10.705 0 0 0 246.875 55.078 L 246.875 51.563 A 15.604 15.604 0 0 1 245.905 50.507 Q 245.004 49.421 244.694 48.533 A 2.666 2.666 0 0 1 244.531 47.656 A 41.182 41.182 0 0 0 242.828 46.582 A 48.641 48.641 0 0 0 241.992 46.094 A 8.128 8.128 0 0 1 241.309 45.66 Q 240.517 45.096 240.234 44.531 Q 238.937 44.531 237.91 43.185 A 6.563 6.563 0 0 1 237.5 42.578 A 53.816 53.816 0 0 0 240.086 37.451 A 49.535 49.535 0 0 0 240.234 37.109 A 66.751 66.751 0 0 1 241.406 34.521 A 49.813 49.813 0 0 1 242.578 32.227 A 31.125 31.125 0 0 0 243.234 30.961 Q 243.805 29.789 244.08 28.913 A 8.108 8.108 0 0 0 244.141 28.711 A 9.012 9.012 0 0 1 245.313 26.172 A 30.675 30.675 0 0 0 245.926 25.211 Q 246.46 24.341 247.07 23.242 A 338.708 338.708 0 0 0 247.409 22.631 Q 248.084 21.411 248.242 21.094 A 1.309 1.309 0 0 1 248.393 20.866 Q 248.568 20.646 248.887 20.379 A 7.857 7.857 0 0 1 249.219 20.117 Q 249.863 19.634 250.241 19.284 A 5.351 5.351 0 0 0 250.391 19.141 Q 250.391 16.006 249.343 13.92 A 6.948 6.948 0 0 0 248.047 12.109 A 19.294 19.294 0 0 1 245.443 10.518 Q 243.494 9.119 241.406 7.031 L 239.063 6.641 A 60.696 60.696 0 0 0 236.744 6.682 Q 232.092 6.86 230.664 7.813 A 3.748 3.748 0 0 0 229.114 10.023 Q 228.932 10.684 228.91 11.487 A 8.2 8.2 0 0 0 228.906 11.719 A 1.577 1.577 0 0 1 228.87 12.073 Q 228.821 12.285 228.706 12.431 A 0.793 0.793 0 0 1 228.32 12.695 A 1.969 1.969 0 0 0 228 12.832 Q 227.83 12.925 227.711 13.044 A 0.915 0.915 0 0 0 227.539 13.281 A 2.962 2.962 0 0 1 227.406 13.507 Q 227.059 14.056 225.934 15.643 A 270.726 270.726 0 0 1 225.391 16.406 A 30.881 30.881 0 0 0 224.31 12.699 Q 222.917 8.914 220.84 7.351 A 5.292 5.292 0 0 0 217.578 6.25 A 2.49 2.49 0 0 1 217.138 6.214 Q 216.897 6.17 216.708 6.075 A 1.158 1.158 0 0 1 216.406 5.859 L 214.063 5.859 Q 209.914 7.934 208.912 9.334 A 1.448 1.448 0 0 0 208.594 10.156 A 3.584 3.584 0 0 0 208.658 10.869 Q 208.911 12.109 210.156 12.109 A 1.467 1.467 0 0 0 210.581 12.02 Q 211.5 11.718 213.781 10.394 A 85.246 85.246 0 0 0 214.844 9.766 L 216.797 8.984 A 1.768 1.768 0 0 1 217.481 9.106 Q 218.359 9.473 218.359 10.938 Q 218.359 17.204 215.567 21.299 A 13.847 13.847 0 0 1 214.844 22.266 Q 213.281 24.609 211.914 26.758 A 4.453 4.453 0 0 1 208.958 28.755 A 7.319 7.319 0 0 1 207.422 28.906 A 1.143 1.143 0 0 0 206.882 29.057 Q 206.316 29.36 205.664 30.273 Q 204.688 31.641 204.297 32.031 L 204.297 32.422 A 1.663 1.663 0 0 0 204.411 33.02 A 2.042 2.042 0 0 0 204.492 33.203 Q 204.688 33.594 205.078 33.789 A 1.881 1.881 0 0 0 205.518 33.947 A 1.595 1.595 0 0 0 205.859 33.984 L 202.734 37.5 L 204.297 38.672 A 228.184 228.184 0 0 1 204.835 39.482 Q 205.753 40.873 205.996 41.297 A 2.346 2.346 0 0 1 206.055 41.406 L 206.836 42.969 A 2.966 2.966 0 0 0 207.529 43.849 Q 208.208 44.455 209.375 44.922 A 20.025 20.025 0 0 1 214.063 40.234 L 216.406 41.406 A 63.974 63.974 0 0 1 218.706 42.479 Q 223.08 44.636 223.411 45.894 A 0.785 0.785 0 0 1 223.438 46.094 A 3.312 3.312 0 0 1 223.069 47.259 Q 221.435 50.831 212.562 63.195 A 620.229 620.229 0 0 1 212.5 63.281 A 73.803 73.803 0 0 0 210.902 65.219 Q 209.265 67.267 207.15 70.134 A 266.286 266.286 0 0 0 206.445 71.094 A 65.577 65.577 0 0 1 197.928 80.594 A 72.163 72.163 0 0 1 197.852 80.664 Q 193.264 84.885 191.952 85.14 A 0.818 0.818 0 0 1 191.797 85.156 L 189.453 83.984 Q 188.281 83.984 188.281 86.719 A 0.889 0.889 0 0 0 188.792 87.465 Q 190.123 88.281 194.922 88.281 Q 195.313 88.672 196.094 88.672 A 1.112 1.112 0 0 0 196.524 88.565 Q 197.174 88.283 198.265 87.264 A 22.903 22.903 0 0 0 198.828 86.719 Q 207.031 86.719 210.938 80.469 Q 211.268 79.808 212.295 79.009 A 12.154 12.154 0 0 1 212.695 78.711 A 25.776 25.776 0 0 0 213.566 78.063 Q 214.331 77.466 214.844 76.953 A 178.399 178.399 0 0 0 220.337 70.85 Q 227.734 62.207 230.078 56.641 A 9.523 9.523 0 0 1 230.641 55.006 A 7.791 7.791 0 0 1 231.25 53.906 Q 231.885 52.954 232.004 52.518 A 0.676 0.676 0 0 0 232.031 52.344 Z M 316.406 56.25 L 311.719 56.25 Q 310.938 56.641 310.156 56.641 A 1.177 1.177 0 0 0 309.724 56.744 Q 309.05 57.021 307.859 58.036 A 26.461 26.461 0 0 0 307.227 58.594 A 39.727 39.727 0 0 1 305.16 60.34 Q 304.073 61.2 302.813 62.095 A 69.649 69.649 0 0 1 301.953 62.695 A 48.557 48.557 0 0 0 299.774 64.279 Q 298.725 65.09 297.855 65.871 A 24.953 24.953 0 0 0 296.875 66.797 Q 296.092 66.013 295.832 65.23 A 2.456 2.456 0 0 1 295.703 64.453 L 292.578 60.547 L 287.5 62.109 L 287.109 62.5 L 287.109 64.063 L 289.844 63.281 A 16.759 16.759 0 0 1 292.421 68.879 A 19.37 19.37 0 0 1 292.578 69.531 Q 292.578 71.094 291.602 71.484 Q 290.625 71.875 290.625 74.219 A 6.502 6.502 0 0 0 290.802 75.777 A 4.501 4.501 0 0 0 291.992 77.93 Q 293.044 78.981 293.518 79.686 A 3.59 3.59 0 0 1 293.75 80.078 A 9.766 9.766 0 0 0 295.068 83.154 A 8.187 8.187 0 0 0 299.219 86.328 L 300 87.109 A 6.074 6.074 0 0 0 300.977 84.57 Q 301.104 83.682 301.56 83.206 A 1.657 1.657 0 0 1 302.149 82.812 A 6.793 6.793 0 0 1 302.728 82.625 Q 304.443 82.129 310.156 80.859 A 135.755 135.755 0 0 1 310.889 81.32 Q 313.281 82.837 313.281 83.008 Q 313.281 83.203 313.867 83.203 Q 314.372 83.203 314.877 83.928 A 4.42 4.42 0 0 1 315.039 84.18 A 15.753 15.753 0 0 0 315.32 84.631 Q 315.61 85.079 315.843 85.357 A 2.987 2.987 0 0 0 316.016 85.547 Q 316.406 85.938 317.188 87.5 A 2.701 2.701 0 0 0 318.219 88.647 Q 318.719 88.946 319.38 89.03 A 4.299 4.299 0 0 0 319.922 89.063 A 43.258 43.258 0 0 0 320.288 88.599 Q 321.26 87.349 321.442 86.889 A 0.493 0.493 0 0 0 321.484 86.719 A 4.65 4.65 0 0 1 322.516 83.803 A 6.391 6.391 0 0 1 323.047 83.203 Q 326.105 72.501 326.731 71.71 A 0.349 0.349 0 0 1 326.758 71.68 Q 327.307 71.13 327.685 70.238 A 6.607 6.607 0 0 0 327.734 70.117 A 6.029 6.029 0 0 1 327.905 69.727 Q 328.197 69.125 328.489 68.959 A 0.569 0.569 0 0 1 328.516 68.945 Q 328.906 68.75 330.469 66.797 Q 319.922 56.25 316.406 56.25 Z M 227.734 39.063 L 226.563 38.672 Q 216.908 38.672 216.431 37.966 A 0.133 0.133 0 0 1 216.406 37.891 A 26.984 26.984 0 0 0 219.595 34.015 A 33.634 33.634 0 0 0 221.289 31.25 A 66.586 66.586 0 0 0 222.019 29.888 Q 223.407 27.22 223.437 26.402 A 0.96 0.96 0 0 0 223.438 26.367 A 1.073 1.073 0 0 1 223.663 25.919 Q 225.014 23.966 234.438 14.703 A 959.066 959.066 0 0 1 237.891 11.328 L 237.5 14.453 A 8.816 8.816 0 0 1 237.157 16.508 Q 235.936 21.213 230.374 33.383 A 519.045 519.045 0 0 1 227.734 39.063 Z M 300 77.734 L 299.609 77.734 L 299.219 73.828 Q 300.632 68.883 302.204 67.611 A 2.345 2.345 0 0 1 302.539 67.383 Q 304.297 66.406 305.078 65.625 Q 305.859 64.844 306.836 64.453 A 3.449 3.449 0 0 0 307.373 64.172 Q 308.213 63.647 309.454 62.42 A 28.929 28.929 0 0 0 309.57 62.305 Q 311.328 60.547 315.625 60.547 L 318.75 62.5 A 34.091 34.091 0 0 1 317.916 69.89 A 38.8 38.8 0 0 1 317.578 71.289 A 44.003 44.003 0 0 1 317.187 72.701 Q 316.272 75.781 315.625 75.781 L 310.547 74.609 Q 307.031 74.609 300 77.734 Z M 134.375 28.906 L 133.984 28.906 A 157.029 157.029 0 0 1 134.05 24.181 Q 134.284 16.461 135.352 13.867 A 72.108 72.108 0 0 0 136.984 9.488 A 87.247 87.247 0 0 0 137.891 6.641 A 1.577 1.577 0 0 1 137.927 6.287 Q 137.976 6.075 138.091 5.928 A 0.793 0.793 0 0 1 138.477 5.664 Q 139.02 5.483 140.068 4.462 A 18.48 18.48 0 0 0 140.234 4.297 Q 140.625 4.297 142.578 6.25 A 21.398 21.398 0 0 1 143.291 6.995 Q 144.259 8.062 144.472 8.676 A 0.957 0.957 0 0 1 144.531 8.984 A 20.139 20.139 0 0 1 144.462 10.714 Q 144.272 12.915 143.555 14.063 A 18.341 18.341 0 0 0 142.397 16.211 A 15.852 15.852 0 0 0 141.992 17.188 Q 141.406 18.75 139.844 21.094 A 438.384 438.384 0 0 1 138.648 22.925 Q 134.717 28.906 134.375 28.906 Z M 136.328 68.359 L 135.938 68.359 A 4.769 4.769 0 0 1 136.075 67.444 Q 136.561 65.24 138.768 58.906 A 419.163 419.163 0 0 1 139.844 55.859 L 140.234 55.469 L 139.453 55.469 L 133.984 63.672 L 133.594 63.281 Q 133.594 60.695 134.467 58.808 A 7.878 7.878 0 0 1 134.57 58.594 Q 135.416 56.903 135.676 56.091 A 3.752 3.752 0 0 0 135.742 55.859 A 1.36 1.36 0 0 1 135.745 55.847 Q 135.94 55.098 136.866 55.079 A 2.368 2.368 0 0 1 136.914 55.078 A 3.879 3.879 0 0 0 137.366 55.054 Q 137.866 54.995 138.154 54.794 A 0.947 0.947 0 0 0 138.281 54.688 Q 138.543 54.426 138.804 54.34 A 0.819 0.819 0 0 1 139.063 54.297 A 1.173 1.173 0 0 0 139.193 54.29 Q 139.324 54.276 139.389 54.228 A 0.149 0.149 0 0 0 139.453 54.102 A 0.054 0.054 0 0 1 139.495 54.051 Q 139.682 53.978 140.714 54.267 A 20.227 20.227 0 0 1 140.82 54.297 A 8.293 8.293 0 0 1 141.268 54.437 Q 142.188 54.758 142.188 55.078 A 1.663 1.663 0 0 1 142.073 55.676 A 2.042 2.042 0 0 1 141.992 55.859 A 1.721 1.721 0 0 0 141.852 56.269 Q 141.797 56.525 141.797 56.836 Q 141.797 57.315 141.536 58.184 A 14.102 14.102 0 0 1 141.406 58.594 Q 141.016 59.766 141.016 60.938 Q 140.412 64.56 139.692 65.733 A 1.391 1.391 0 0 1 139.258 66.211 A 9.081 9.081 0 0 0 137.5 67.578 Q 136.719 68.359 136.328 68.359 Z M 62.109 60.938 L 68.75 61.719 Q 68.75 61.409 68.996 61.345 A 0.576 0.576 0 0 1 69.141 61.328 A 3.345 3.345 0 0 0 69.376 61.315 Q 70.105 61.256 72.656 60.938 A 345.376 345.376 0 0 1 73.395 60.846 Q 75.713 60.561 76.134 60.548 A 1.177 1.177 0 0 1 76.172 60.547 A 1.117 1.117 0 0 1 77.111 61.187 Q 78.125 62.838 78.125 68.75 A 208.162 208.162 0 0 1 78.118 70.51 Q 78.089 73.89 77.941 74.747 A 2.346 2.346 0 0 1 77.93 74.805 Q 77.734 75.781 77.149 76.563 Q 76.591 77.306 76.21 77.342 A 0.407 0.407 0 0 1 76.172 77.344 A 2.876 2.876 0 0 1 74.739 76.798 Q 71.478 74.731 64.063 64.844 Q 62.507 62.978 62.191 61.607 A 2.973 2.973 0 0 1 62.109 60.938 Z M 37.891 37.891 L 33.594 37.891 A 8.39 8.39 0 0 1 33.659 36.797 Q 33.817 35.605 34.353 35.008 A 1.722 1.722 0 0 1 34.961 34.57 Q 36.181 34.048 37.4 32.903 A 12.923 12.923 0 0 0 37.695 32.617 Q 38.986 31.326 39.755 31.254 A 0.954 0.954 0 0 1 39.844 31.25 Q 42.969 32.422 45.313 34.766 Q 45.313 35.156 44.336 38.477 A 82.573 82.573 0 0 1 42.651 43.567 A 93.959 93.959 0 0 1 41.992 45.312 A 104.092 104.092 0 0 0 41.528 46.528 Q 40.749 48.607 40.642 49.247 A 1.055 1.055 0 0 0 40.625 49.414 A 1.3 1.3 0 0 1 40.61 49.621 Q 40.552 49.983 40.263 49.999 A 0.493 0.493 0 0 1 40.234 50 A 0.672 0.672 0 0 1 40.019 49.957 Q 39.615 49.817 38.867 49.219 Q 38.053 48.567 37.918 48.187 A 0.421 0.421 0 0 1 37.891 48.047 Q 37.891 47.271 39.819 44.566 A 50.099 50.099 0 0 1 39.844 44.531 Q 40.625 43.75 40.625 42.578 A 1.287 1.287 0 0 0 40.521 42.154 Q 40.123 41.118 38.21 38.35 A 93.745 93.745 0 0 0 37.891 37.891 Z M 273.047 64.844 L 273.047 75.391 L 272.266 75.391 A 15.884 15.884 0 0 1 268.526 74.983 Q 263.835 73.846 262.109 69.531 Q 260.577 66.773 260.247 64.976 A 5.08 5.08 0 0 1 260.156 64.062 L 269.141 64.063 L 269.531 64.453 A 16.818 16.818 0 0 1 271.387 64.551 A 12.567 12.567 0 0 1 273.047 64.844 Z M 76.953 55.469 L 76.563 55.859 A 0.391 0.391 0 0 1 76.551 55.859 Q 76.241 55.85 75.931 55.349 A 3.441 3.441 0 0 1 75.781 55.078 A 17.193 17.193 0 0 0 74.854 54.382 Q 73.535 53.467 72.656 53.32 A 9.275 9.275 0 0 1 71.832 53.146 Q 71.412 53.036 71.057 52.893 A 4.816 4.816 0 0 1 70.703 52.734 A 37.269 37.269 0 0 1 73.242 49.023 A 5.126 5.126 0 0 1 74.294 47.991 A 3.802 3.802 0 0 1 76.563 47.266 L 76.953 55.469 Z M 64.844 49.219 L 63.281 49.219 A 66.485 66.485 0 0 1 63.31 47.188 Q 63.464 42.157 64.453 41.992 A 15.423 15.423 0 0 0 66.797 41.406 A 10.187 10.187 0 0 1 67.491 41.2 Q 67.846 41.109 68.157 41.063 A 4.054 4.054 0 0 1 68.75 41.016 L 69.531 42.578 A 2.138 2.138 0 0 1 69.399 43.256 Q 68.998 44.428 67.383 46.484 Q 65.642 48.701 65.055 49.121 A 0.423 0.423 0 0 1 64.844 49.219 Z M 26.563 47.266 L 26.563 45.703 A 1.341 1.341 0 0 1 26.879 44.869 Q 27.269 44.37 28.142 43.911 A 9.488 9.488 0 0 1 28.906 43.555 A 66.607 66.607 0 0 1 29.717 43.223 Q 31.103 42.667 31.529 42.59 A 0.658 0.658 0 0 1 31.641 42.578 L 32.031 43.359 A 4.516 4.516 0 0 1 30.707 46.637 A 5.378 5.378 0 0 1 30.664 46.68 Q 29.373 47.971 28.605 48.043 A 0.954 0.954 0 0 1 28.516 48.047 Q 26.563 48.047 26.563 47.266 Z" vector-effect="non-scaling-stroke"/>
  </g>
  <style>
    @keyframes path-animate {
      0% {
        stroke-dashoffset: var(--path-length);
      }

      33% {
        fill: transparent;
      }

      66% {
        stroke-dashoffset: 0;
      }

      100% {
        fill: var(--font-color);
        stroke-dashoffset: 0;
      }
    }
    svg {
      --font-color: currentColor;
      --path-length: 260;
    }
    .path {
      fill: transparent;
      stroke: var(--font-color);
      stroke-dasharray: var(--path-length);
      stroke-linecap: round;
      stroke-dashoffset: var(--path-length);
      animation: 3s path-animate 1.5s forwards;
    }
  </style>
</svg>