<svg xmlns="http://www.w3.org/2000/svg" style="font-size: 36px;" width="6.4em" height="1em" viewBox="61 -39 300 65" preserveAspectRatio="xMidYMid">
  <path class="path" d="M19.33-13.57L19.33-13.57L19.33-13.57Q14.78-14.98 12.45-14.98L12.45-14.98L12.45-14.98Q10.11-14.98 8-13.02L8-13.02L8-13.02Q5.89-11.07 4.16-8.64L4.16-8.64L4.16-8.64Q3.14-7.42 2.75-7.74L2.75-7.74L2.75-7.74Q2.37-8.06 2.82-8.77L2.82-8.77L7.10-14.66L7.10-14.66Q8.32-16.38 10.11-17.34L10.11-17.34L10.11-17.34Q10.69-17.66 11.20-17.66L11.20-17.66L11.20-17.66Q11.71-17.66 12.29-17.63L12.29-17.63L12.29-17.63Q12.86-17.60 13.28-17.57L13.28-17.57L13.28-17.57Q13.70-17.54 15.04-17.18L15.04-17.18L15.04-17.18Q16.38-16.83 16.64-16.77L16.64-16.77L21.57-15.62L21.57-15.62Q22.59-16.58 23.78-17.02L23.78-17.02L23.78-17.02Q24.96-17.47 25.60-17.47L25.60-17.47L25.60-17.47Q26.24-17.47 26.56-16.77L26.56-16.77L26.56-16.77Q26.62-15.23 24.80-14.14L24.80-14.14L24.80-14.14Q22.98-13.06 22.18-13.06L22.18-13.06L22.18-13.06Q21.38-13.06 21.06-13.12L21.06-13.12L21.06-13.12Q15.49-8.58 12.10-5.57L12.10-5.57L12.10-5.57Q8.70-2.56 8.32-2.24L8.32-2.24L10.24-1.28L10.24-1.28Q14.66 1.28 16.90 1.28L16.90 1.28L16.90 1.28Q18.37 1.28 20.16 0.26L20.16 0.26L20.16 0.26Q21.95-0.77 25.28-3.87L25.28-3.87L25.28-3.87Q28.61-6.98 30.40-9.47L30.40-9.47L30.40-9.47Q30.72-9.92 31.14-9.76L31.14-9.76L31.14-9.76Q31.55-9.60 31.55-9.47L31.55-9.47L31.55-9.47Q31.55-8.58 27.62-4.54L27.62-4.54L27.62-4.54Q23.68-0.51 21.76 0.90L21.76 0.90L21.76 0.90Q18.56 3.26 15.55 3.26L15.55 3.26L15.55 3.26Q12.54 3.26 8.58 0.77L8.58 0.77L8.58 0.77Q7.10-0.13 6.08-0.45L6.08-0.45L6.08-0.45Q3.20 1.73 1.73 1.73L1.73 1.73L1.73 1.73Q1.34 1.73 1.02 1.60L1.02 1.60L1.02 1.60Q0.58 1.15 0.58 0.38L0.58 0.38L0.58 0.38Q0.58-0.38 1.34-1.34L1.34-1.34L1.34-1.34Q2.56-3.01 4.93-3.01L4.93-3.01L4.93-3.01Q6.08-3.01 7.42-2.56L7.42-2.56L7.42-2.56Q9.22-4.03 9.41-4.29L9.41-4.29L9.41-4.29Q12.61-7.04 19.33-13.57ZM51.52-37.44L51.52-37.44L51.52-37.44Q52.67-37.89 53.50-37.89L53.50-37.89L53.50-37.89Q56.32-37.89 57.22-36.35L57.22-36.35L57.22-36.35Q57.73-35.58 57.73-35.01L57.73-35.01L57.73-35.01Q57.73-30.66 50.43-24.06L50.43-24.06L50.43-24.06Q43.97-18.37 38.53-14.27L38.53-14.27L38.53-14.27Q36.74-10.24 34.82-4.35L34.82-4.35L34.82-4.35Q37.12-7.17 40.64-10.88L40.64-10.88L40.64-10.88Q47.74-18.24 50.56-18.24L50.56-18.24L50.56-18.24Q51.97-18.24 52.03-16.83L52.03-16.83L52.03-16.83Q52.16-15.36 51.42-14.02L51.42-14.02L51.42-14.02Q50.69-12.67 50.05-11.52L50.05-11.52L50.05-11.52Q47.04-6.53 47.04-2.62L47.04-2.62L47.04-2.62Q47.04-1.34 47.55-0.77L47.55-0.77L47.55-0.77Q48.45 0.26 50.11-0.64L50.11-0.64L50.11-0.64Q51.78-1.54 54.75-4.22L54.75-4.22L54.75-4.22Q57.73-6.91 59.58-9.47L59.58-9.47L59.58-9.47Q59.90-9.79 60.19-9.63L60.19-9.63L60.19-9.63Q60.48-9.47 60.48-9.31L60.48-9.31L60.48-9.31Q60.48-9.15 60.35-8.96L60.35-8.96L60.35-8.96Q59.39-7.23 56.90-4.58L56.90-4.58L56.90-4.58Q54.40-1.92 52.86-0.77L52.86-0.77L52.86-0.77Q49.92 1.47 47.23 1.47L47.23 1.47L47.23 1.47Q44.80 1.47 43.97-0.96L43.97-0.96L43.97-0.96Q43.78-1.54 43.78-2.34L43.78-2.34L43.78-2.34Q43.78-3.14 43.90-4.03L43.90-4.03L43.90-4.03Q44.22-6.72 47.30-12.42L47.30-12.42L47.30-12.42Q47.94-13.57 47.94-14.05L47.94-14.05L47.94-14.05Q47.94-14.53 47.42-14.53L47.42-14.53L47.42-14.53Q46.40-14.53 43.46-11.97L43.46-11.97L43.46-11.97Q41.47-10.11 37.60-4.96L37.60-4.96L37.60-4.96Q33.73 0.19 33.22 0.51L33.22 0.51L33.22 0.51Q30.91 1.66 30.37 1.66L30.37 1.66L30.37 1.66Q29.82 1.66 29.76 1.50L29.76 1.50L29.76 1.50Q29.70 1.34 29.82 1.09L29.82 1.09L29.82 1.09Q29.95 0.83 30.85-1.73L30.85-1.73L30.85-1.73Q33.86-10.24 34.94-12.99L34.94-12.99L34.94-12.99Q32.83-10.30 29.70-6.91L29.70-6.91L29.70-6.91Q29.18-6.40 29.18-7.14L29.18-7.14L29.18-7.14Q29.18-7.87 29.76-8.64L29.76-8.64L29.76-8.64Q30.34-9.41 32.16-11.62L32.16-11.62L32.16-11.62Q33.98-13.82 34.75-14.91L34.75-14.91L34.75-14.91Q34.18-15.23 34.14-15.81L34.14-15.81L34.14-15.81Q34.11-16.38 34.53-16.61L34.53-16.61L34.53-16.61Q34.94-16.83 35.90-16.45L35.90-16.45L35.90-16.45Q36.54-17.34 37.06-18.43L37.06-18.43L37.06-18.43Q44.67-34.82 51.52-37.44ZM55.10-32.64L55.10-32.64L55.10-32.64Q55.94-34.18 55.94-35.23L55.94-35.23L55.94-35.23Q55.94-36.29 55.01-36.29L55.01-36.29L55.01-36.29Q54.08-36.29 52.54-35.14L52.54-35.14L52.54-35.14Q45.50-29.76 39.81-17.15L39.81-17.15L39.81-17.15Q43.97-19.84 48.51-24.32L48.51-24.32L48.51-24.32Q53.06-28.80 55.10-32.64ZM61.95 0.70L61.95 0.70L61.95 0.70Q60.93 0.70 59.74 0.10L59.74 0.10L59.74 0.10Q58.56-0.51 57.73-1.63L57.73-1.63L57.73-1.63Q56.90-2.75 56.90-4.03L56.90-4.03L56.90-4.03Q56.90-5.31 57.47-6.46L57.47-6.46L57.47-6.46Q58.75-9.15 61.60-11.68L61.60-11.68L61.60-11.68Q64.45-14.21 67.52-16L67.52-16L67.52-16Q70.59-17.79 72.38-18.24L72.38-18.24L72.38-18.24Q74.18-18.69 75.87-18.69L75.87-18.69L75.87-18.69Q77.57-18.69 78.78-17.82L78.78-17.82L78.78-17.82Q80-16.96 80-16L80-16L80-16Q80-15.68 79.94-15.62L79.94-15.62L79.94-15.62Q79.87-15.55 79.62-15.68L79.62-15.68L79.62-15.68Q78.85-16.90 76.45-16.90L76.45-16.90L76.45-16.90Q74.05-16.90 71.01-15.33L71.01-15.33L71.01-15.33Q67.97-13.76 65.28-11.39L65.28-11.39L65.28-11.39Q63.04-9.28 61.34-6.62L61.34-6.62L61.34-6.62Q59.65-3.97 59.65-2.75L59.65-2.75L59.65-2.75Q59.65-0.38 60.99-0.38L60.99-0.38L60.99-0.38Q62.34-0.38 65.09-2.56L65.09-2.56L65.09-2.56Q69.63-6.40 71.30-8.19L71.30-8.19L71.30-8.19Q77.18-14.53 77.63-14.53L77.63-14.53L77.63-14.53Q78.40-14.53 79.49-14.08L79.49-14.08L79.49-14.08Q80.58-13.63 80.19-12.99L80.19-12.99L80.19-12.99Q76.93-8.38 76.35-3.71L76.35-3.71L76.35-3.71Q76.29-3.14 76.29-2.24L76.29-2.24L76.29-2.24Q76.29-1.34 76.80-0.77L76.80-0.77L76.80-0.77Q77.76 0.26 79.42-0.64L79.42-0.64L79.42-0.64Q81.09-1.54 84.06-4.22L84.06-4.22L84.06-4.22Q87.04-6.91 88.83-9.47L88.83-9.47L88.83-9.47Q89.09-9.79 89.41-9.63L89.41-9.63L89.41-9.63Q89.73-9.47 89.73-9.34L89.73-9.34L89.73-9.34Q89.73-8.38 86.69-5.15L86.69-5.15L86.69-5.15Q83.65-1.92 82.05-0.77L82.05-0.77L82.05-0.77Q79.04 1.47 76.48 1.47L76.48 1.47L76.48 1.47Q74.05 1.47 73.22-0.96L73.22-0.96L73.22-0.96Q73.02-1.73 73.02-2.69L73.02-2.69L73.02-2.69Q73.02-5.57 74.24-8.77L74.24-8.77L74.24-8.77Q73.98-8.64 71.87-6.21L71.87-6.21L71.87-6.21Q69.76-3.78 66.98-1.54L66.98-1.54L66.98-1.54Q64.19 0.70 61.95 0.70ZM105.79-18.18L105.79-18.18L105.79-18.18Q107.26-18.18 107.26-16.61L107.26-16.61L107.26-16.61Q107.26-15.04 105.79-12.29L105.79-12.29L105.79-12.29Q104.32-9.54 103.62-7.81L103.62-7.81L103.62-7.81Q102.40-4.86 102.40-3.10L102.40-3.10L102.40-3.10Q102.40-1.34 102.91-0.77L102.91-0.77L102.91-0.77Q103.87 0.26 105.54-0.67L105.54-0.67L105.54-0.67Q107.20-1.60 110.18-4.26L110.18-4.26L110.18-4.26Q113.15-6.91 114.94-9.47L114.94-9.47L114.94-9.47Q115.20-9.79 115.55-9.63L115.55-9.63L115.55-9.63Q115.90-9.47 115.90-9.31L115.90-9.31L115.90-9.31Q115.90-9.15 115.78-8.96L115.78-8.96L115.78-8.96Q114.82-7.23 112.32-4.54L112.32-4.54L112.32-4.54Q109.82-1.86 107.52-0.22L107.52-0.22L107.52-0.22Q105.22 1.41 102.98 1.41L102.98 1.41L102.98 1.41Q100.80 1.34 99.90 0.42L99.90 0.42L99.90 0.42Q99.01-0.51 99.01-1.92L99.01-1.92L99.01-1.92Q99.01-3.33 99.26-4.64L99.26-4.64L99.26-4.64Q99.52-5.95 100.22-7.68L100.22-7.68L100.22-7.68Q101.38-10.43 102.24-11.97L102.24-11.97L102.24-11.97Q103.10-13.50 103.10-13.98L103.10-13.98L103.10-13.98Q103.10-14.46 102.59-14.46L102.59-14.46L102.59-14.46Q101.57-14.46 98.69-11.97L98.69-11.97L98.69-11.97Q96.70-10.11 92.83-4.96L92.83-4.96L92.83-4.96Q88.96 0.19 88.45 0.51L88.45 0.51L88.45 0.51Q86.14 1.66 85.57 1.66L85.57 1.66L85.57 1.66Q84.99 1.66 84.99 1.47L84.99 1.47L84.99 1.47Q84.99 1.28 85.12 0.93L85.12 0.93L85.12 0.93Q85.25 0.58 86.37-2.56L86.37-2.56L86.37-2.56Q87.49-5.70 88.80-9.44L88.80-9.44L88.80-9.44Q90.11-13.18 90.40-13.95L90.40-13.95L90.40-13.95Q90.69-14.72 90.78-15.26L90.78-15.26L90.78-15.26Q90.88-15.81 91.01-16.19L91.01-16.19L91.01-16.19Q91.14-16.58 91.49-17.06L91.49-17.06L91.49-17.06Q91.84-17.54 92.42-17.57L92.42-17.57L92.42-17.57Q92.99-17.60 93.89-17.44L93.89-17.44L93.89-17.44Q94.78-17.28 94.78-16.64L94.78-16.64L94.78-16.64Q94.78-16.19 94.08-14.69L94.08-14.69L94.08-14.69Q93.38-13.18 90.05-4.35L90.05-4.35L90.05-4.35Q92.35-7.17 95.87-10.85L95.87-10.85L95.87-10.85Q99.39-14.53 101.82-16.45L101.82-16.45L101.82-16.45Q104.26-18.18 105.79-18.18ZM112.45 24.38L112.45 24.38L112.45 24.38Q111.94 24.38 111.17 24.19L111.17 24.19L111.17 24.19Q107.90 23.36 107.90 20.77L107.90 20.77L107.90 20.77Q107.90 18.18 111.26 14.27L111.26 14.27L111.26 14.27Q114.62 10.37 125.44 3.20L125.44 3.20L125.44 3.20Q130.05-6.21 131.84-11.71L131.84-11.71L131.84-11.71Q128.26-7.36 126.72-5.70L126.72-5.70L126.72-5.70Q120.96 0.70 117.44 0.70L117.44 0.70L117.44 0.70Q116.42 0.70 115.23 0.10L115.23 0.10L115.23 0.10Q114.05-0.51 113.22-1.63L113.22-1.63L113.22-1.63Q112.38-2.75 112.38-4.03L112.38-4.03L112.38-4.03Q112.38-7.42 117.12-11.65L117.12-11.65L117.12-11.65Q119.94-14.21 123.01-16L123.01-16L123.01-16Q126.08-17.79 127.87-18.24L127.87-18.24L127.87-18.24Q129.66-18.69 131.33-18.69L131.33-18.69L131.33-18.69Q132.99-18.69 134.27-17.79L134.27-17.79L134.27-17.79Q135.55-16.90 135.55-16L135.55-16L135.55-16Q135.55-15.49 135.04-15.68L135.04-15.68L135.04-15.68Q134.34-16.90 131.94-16.90L131.94-16.90L131.94-16.90Q129.54-16.90 126.50-15.33L126.50-15.33L126.50-15.33Q123.46-13.76 121.02-11.62L121.02-11.62L121.02-11.62Q118.59-9.47 116.90-6.75L116.90-6.75L116.90-6.75Q115.20-4.03 115.20-2.75L115.20-2.75L115.20-2.75Q115.20-0.51 116.48-0.51L116.48-0.51L116.48-0.51Q118.27-0.51 121.98-3.46L121.98-3.46L121.98-3.46Q127.49-7.74 132.54-13.89L132.54-13.89L132.54-13.89Q133.38-15.10 136-13.82L136-13.82L136-13.82Q137.02-13.31 136.83-12.93L136.83-12.93L136.83-12.93Q136-11.07 133.79-6.50L133.79-6.50L133.79-6.50Q131.58-1.92 130.50 0.38L130.50 0.38L130.50 0.38Q131.97-0.38 135.52-3.49L135.52-3.49L135.52-3.49Q139.07-6.59 141.76-9.73L141.76-9.73L141.76-9.73Q143.17-11.39 143.17-10.24L143.17-10.24L143.17-10.24Q143.17-8.64 135.49-1.79L135.49-1.79L135.49-1.79Q131.07 2.18 129.22 3.20L129.22 3.20L129.22 3.20Q123.78 14.40 121.92 17.28L121.92 17.28L121.92 17.28Q117.12 24.38 112.45 24.38ZM124.22 5.63L124.22 5.63L124.22 5.63Q116.54 11.39 113.22 14.75L113.22 14.75L113.22 14.75Q109.89 18.11 109.89 21.06L109.89 21.06L109.89 21.06Q109.89 21.95 110.46 22.34L110.46 22.34L110.46 22.34Q111.04 22.72 111.68 22.72L111.68 22.72L111.68 22.72Q112.32 22.72 113.54 21.76L113.54 21.76L113.54 21.76Q114.75 20.80 115.62 19.87L115.62 19.87L115.62 19.87Q116.48 18.94 117.12 18.14L117.12 18.14L117.12 18.14Q117.76 17.34 118.56 16.10L118.56 16.10L118.56 16.10Q119.36 14.85 119.81 14.14L119.81 14.14L119.81 14.14Q120.26 13.44 121.06 11.94L121.06 11.94L121.06 11.94Q121.86 10.43 122.14 9.89L122.14 9.89L122.14 9.89Q122.43 9.34 123.23 7.68L123.23 7.68L123.23 7.68Q124.03 6.02 124.22 5.63ZM126.21 24.38L126.21 24.38L126.21 24.38Q125.70 24.38 124.93 24.19L124.93 24.19L124.93 24.19Q121.60 23.30 121.60 20.70L121.60 20.70L121.60 20.70Q121.60 18.11 124.99 14.24L124.99 14.24L124.99 14.24Q128.38 10.37 139.20 3.20L139.20 3.20L139.20 3.20Q143.81-6.34 145.98-13.12L145.98-13.12L145.98-13.12Q145.47-12.48 143.87-10.59L143.87-10.59L143.87-10.59Q142.27-8.70 141.82-8.06L141.82-8.06L141.82-8.06Q141.38-7.42 140.99-8L140.99-8L140.99-8Q140.86-8.45 141.18-8.90L141.18-8.90L141.18-8.90Q142.40-10.37 144.45-13.15L144.45-13.15L144.45-13.15Q146.50-15.94 146.94-16.45L146.94-16.45L146.94-16.45Q148.22-17.60 150.53-16.13L150.53-16.13L150.53-16.13Q151.36-15.55 151.17-15.17L151.17-15.17L151.17-15.17Q147.46-6.46 144.26 0.45L144.26 0.45L144.26 0.45Q145.66-0.32 149.18-3.42L149.18-3.42L149.18-3.42Q152.70-6.53 155.52-9.73L155.52-9.73L155.52-9.73Q156.93-11.39 156.93-10.24L156.93-10.24L156.93-10.24Q156.93-8.64 149.25-1.79L149.25-1.79L149.25-1.79Q144.77 2.18 142.98 3.20L142.98 3.20L142.98 3.20Q137.54 14.40 135.68 17.28L135.68 17.28L135.68 17.28Q130.75 24.38 126.21 24.38ZM137.98 5.63L137.98 5.63L137.98 5.63Q130.30 11.39 126.98 14.75L126.98 14.75L126.98 14.75Q123.65 18.11 123.65 21.06L123.65 21.06L123.65 21.06Q123.65 21.95 124.22 22.34L124.22 22.34L124.22 22.34Q124.80 22.72 125.44 22.72L125.44 22.72L125.44 22.72Q126.08 22.72 127.30 21.76L127.30 21.76L127.30 21.76Q128.51 20.80 129.38 19.87L129.38 19.87L129.38 19.87Q130.24 18.94 130.88 18.14L130.88 18.14L130.88 18.14Q131.52 17.34 132.32 16.10L132.32 16.10L132.32 16.10Q133.12 14.85 133.57 14.14L133.57 14.14L133.57 14.14Q134.02 13.44 134.82 11.94L134.82 11.94L134.82 11.94Q135.62 10.43 135.90 9.89L135.90 9.89L135.90 9.89Q136.19 9.34 136.99 7.68L136.99 7.68L136.99 7.68Q137.79 6.02 137.98 5.63ZM155.65-26.24L155.65-26.24L155.14-24.19L155.14-24.19Q155.14-23.62 154.27-22.34L154.27-22.34L154.27-22.34Q153.41-21.06 152.96-21.06L152.96-21.06L152.96-21.06Q150.21-21.06 150.21-22.40L150.21-22.40L150.21-22.40Q150.21-22.66 152.96-24.77L152.96-24.77L154.05-25.60L154.05-25.60Q155.20-26.50 155.42-26.50L155.42-26.50L155.42-26.50Q155.65-26.50 155.65-26.24ZM160.70-17.73L160.70-17.73L160.70-17.73Q162.30-17.73 162.62-16.70L162.62-16.70L162.62-16.70Q162.75-16.13 162.46-15.58L162.46-15.58L162.46-15.58Q162.18-15.04 162.05-14.72L162.05-14.72L162.05-14.72Q161.92-14.40 161.86-14.21L161.86-14.21L161.86-14.21Q161.54-13.57 161.22-12.99L161.22-12.99L161.22-12.99Q157.57-5.70 157.38-3.71L157.38-3.71L157.38-3.71Q157.31-3.14 157.31-2.24L157.31-2.24L157.31-2.24Q157.31-1.34 157.82-0.77L157.82-0.77L157.82-0.77Q158.72 0.26 160.38-0.64L160.38-0.64L160.38-0.64Q162.05-1.54 165.02-4.22L165.02-4.22L165.02-4.22Q168-6.91 169.86-9.47L169.86-9.47L169.86-9.47Q170.11-9.79 170.43-9.63L170.43-9.63L170.43-9.63Q170.75-9.47 170.75-9.31L170.75-9.31L170.75-9.31Q170.75-9.15 170.62-8.96L170.62-8.96L170.62-8.96Q169.66-7.23 167.17-4.54L167.17-4.54L167.17-4.54Q163.07-0.13 160.32 0.90L160.32 0.90L160.32 0.90Q158.72 1.47 157.63 1.47L157.63 1.47L157.63 1.47Q155.07 1.47 154.24-0.96L154.24-0.96L154.24-0.96Q154.11-1.41 154.11-2.05L154.11-2.05L154.11-2.05Q154.11-4.29 156.16-8.83L156.16-8.83L156.16-8.83Q155.84-8.13 153.66-5.63L153.66-5.63L153.66-5.63Q153.09-4.99 152.77-5.63L152.77-5.63L152.77-5.63Q152.70-5.76 152.70-5.98L152.70-5.98L152.70-5.98Q152.70-6.21 152.96-6.53L152.96-6.53L152.96-6.53Q156.10-10.43 157.89-13.12L157.89-13.12L157.89-13.12Q157.76-13.44 158.02-13.95L158.02-13.95L158.02-13.95Q159.30-17.54 160.26-17.73L160.26-17.73L160.26-17.73Q160.45-17.73 160.70-17.73ZM165.76-26.24L165.76-26.24L165.25-24.19L165.25-24.19Q165.25-23.62 164.42-22.34L164.42-22.34L164.42-22.34Q163.58-21.06 163.14-21.06L163.14-21.06L163.14-21.06Q160.38-21.06 160.38-22.40L160.38-22.40L160.38-22.40Q160.38-22.66 163.14-24.77L163.14-24.77L164.22-25.60L164.22-25.60Q165.25-26.50 165.50-26.50L165.50-26.50L165.50-26.50Q165.76-26.50 165.76-26.24ZM185.09-14.08L185.09-14.08L185.41-15.36L185.41-15.36Q185.41-16.64 184.45-16.64L184.45-16.64L184.45-16.64Q181.82-16.64 177.28-12.54L177.28-12.54L177.28-12.54Q172.74-8.45 171.52-4.29L171.52-4.29L171.52-4.29Q171.20-3.20 171.20-2.34L171.20-2.34L171.20-2.34Q171.20-1.47 171.58-0.90L171.58-0.90L171.58-0.90Q172.35 0.26 173.95 0.26L173.95 0.26L173.95 0.26Q175.55 0.26 177.41-0.19L177.41-0.19L177.41-0.19Q181.50-1.34 184.22-3.49L184.22-3.49L184.22-3.49Q186.94-5.63 189.95-9.47L189.95-9.47L189.95-9.47Q190.21-9.79 190.56-9.66L190.56-9.66L190.56-9.66Q190.91-9.54 190.91-9.31L190.91-9.31L190.91-9.31Q190.91-9.09 190.72-8.64L190.72-8.64L190.72-8.64Q187.65-4.48 184.29-1.89L184.29-1.89L184.29-1.89Q180.93 0.70 176.51 1.47L176.51 1.47L176.51 1.47Q175.23 1.66 174.14 1.66L174.14 1.66L174.14 1.66Q171.01 1.66 169.38 0.13L169.38 0.13L169.38 0.13Q167.74-1.41 167.74-3.26L167.74-3.26L167.74-3.26Q167.74-5.12 168.64-7.30L168.64-7.30L168.64-7.30Q170.24-10.94 175.49-14.78L175.49-14.78L175.49-14.78Q180.74-18.62 183.81-18.62L183.81-18.62L183.81-18.62Q184.58-18.62 185.28-18.43L185.28-18.43L185.28-18.43Q187.07-17.79 187.07-16.38L187.07-16.38L187.07-16.38Q187.07-15.42 186.37-14.21L186.37-14.21L186.37-14.21Q185.66-12.99 185.31-13.34L185.31-13.34L185.31-13.34Q184.96-13.70 185.09-14.08ZM211.14-37.44L211.14-37.44L211.14-37.44Q212.29-37.89 213.12-37.89L213.12-37.89L213.12-37.89Q215.94-37.89 216.83-36.35L216.83-36.35L216.83-36.35Q217.34-35.58 217.34-35.01L217.34-35.01L217.34-35.01Q217.34-30.66 210.05-24.06L210.05-24.06L210.05-24.06Q203.58-18.37 198.14-14.27L198.14-14.27L198.14-14.27Q196.35-10.24 194.43-4.35L194.43-4.35L194.43-4.35Q196.74-7.17 200.26-10.88L200.26-10.88L200.26-10.88Q207.36-18.24 210.18-18.24L210.18-18.24L210.18-18.24Q211.58-18.24 211.65-16.83L211.65-16.83L211.65-16.83Q211.78-15.36 211.04-14.02L211.04-14.02L211.04-14.02Q210.30-12.67 209.66-11.52L209.66-11.52L209.66-11.52Q206.66-6.53 206.66-2.62L206.66-2.62L206.66-2.62Q206.66-1.34 207.17-0.77L207.17-0.77L207.17-0.77Q208.06 0.26 209.73-0.64L209.73-0.64L209.73-0.64Q211.39-1.54 214.37-4.22L214.37-4.22L214.37-4.22Q217.34-6.91 219.20-9.47L219.20-9.47L219.20-9.47Q219.52-9.79 219.81-9.63L219.81-9.63L219.81-9.63Q220.10-9.47 220.10-9.31L220.10-9.31L220.10-9.31Q220.10-9.15 219.97-8.96L219.97-8.96L219.97-8.96Q219.01-7.23 216.51-4.58L216.51-4.58L216.51-4.58Q214.02-1.92 212.48-0.77L212.48-0.77L212.48-0.77Q209.54 1.47 206.85 1.47L206.85 1.47L206.85 1.47Q204.42 1.47 203.58-0.96L203.58-0.96L203.58-0.96Q203.39-1.54 203.39-2.34L203.39-2.34L203.39-2.34Q203.39-3.14 203.52-4.03L203.52-4.03L203.52-4.03Q203.84-6.72 206.91-12.42L206.91-12.42L206.91-12.42Q207.55-13.57 207.55-14.05L207.55-14.05L207.55-14.05Q207.55-14.53 207.04-14.53L207.04-14.53L207.04-14.53Q206.02-14.53 203.07-11.97L203.07-11.97L203.07-11.97Q201.09-10.11 197.22-4.96L197.22-4.96L197.22-4.96Q193.34 0.19 192.83 0.51L192.83 0.51L192.83 0.51Q190.53 1.66 189.98 1.66L189.98 1.66L189.98 1.66Q189.44 1.66 189.38 1.50L189.38 1.50L189.38 1.50Q189.31 1.34 189.44 1.09L189.44 1.09L189.44 1.09Q189.57 0.83 190.46-1.73L190.46-1.73L190.46-1.73Q193.47-10.24 194.56-12.99L194.56-12.99L194.56-12.99Q192.45-10.30 189.31-6.91L189.31-6.91L189.31-6.91Q188.80-6.40 188.80-7.14L188.80-7.14L188.80-7.14Q188.80-7.87 189.38-8.64L189.38-8.64L189.38-8.64Q189.95-9.41 191.78-11.62L191.78-11.62L191.78-11.62Q193.60-13.82 194.37-14.91L194.37-14.91L194.37-14.91Q193.79-15.23 193.76-15.81L193.76-15.81L193.76-15.81Q193.73-16.38 194.14-16.61L194.14-16.61L194.14-16.61Q194.56-16.83 195.52-16.45L195.52-16.45L195.52-16.45Q196.16-17.34 196.67-18.43L196.67-18.43L196.67-18.43Q204.29-34.82 211.14-37.44ZM214.72-32.64L214.72-32.64L214.72-32.64Q215.55-34.18 215.55-35.23L215.55-35.23L215.55-35.23Q215.55-36.29 214.62-36.29L214.62-36.29L214.62-36.29Q213.70-36.29 212.16-35.14L212.16-35.14L212.16-35.14Q205.12-29.76 199.42-17.15L199.42-17.15L199.42-17.15Q203.58-19.84 208.13-24.32L208.13-24.32L208.13-24.32Q212.67-28.80 214.72-32.64ZM233.15-18.62L233.15-18.62L233.15-18.62Q236.61-18.62 236.61-15.30L236.61-15.30L236.61-15.30Q236.61-13.57 235.65-12.48L235.65-12.48L235.65-12.48Q234.05-10.11 230.46-8.35L230.46-8.35L230.46-8.35Q226.88-6.59 224.38-6.40L224.38-6.40L224.38-6.40Q223.49-6.34 223.42-6.91L223.42-6.91L223.42-6.91Q223.36-7.17 223.58-7.23L223.58-7.23L223.58-7.23Q223.81-7.30 223.94-7.30L223.94-7.30L223.94-7.30Q225.41-7.42 227.71-8.70L227.71-8.70L227.71-8.70Q232-11.01 233.98-13.44L233.98-13.44L233.98-13.44Q234.82-14.59 234.82-15.65L234.82-15.65L234.82-15.65Q234.82-16.70 233.79-16.70L233.79-16.70L233.79-16.70Q232.96-16.70 231.55-16L231.55-16L231.55-16Q228.54-14.59 225.22-11.10L225.22-11.10L225.22-11.10Q221.89-7.62 220.86-4.29L220.86-4.29L220.86-4.29Q220.54-3.26 220.54-2.27L220.54-2.27L220.54-2.27Q220.54-1.28 221.38-0.38L221.38-0.38L221.38-0.38Q222.21 0.51 223.94 0.51L223.94 0.51L223.94 0.51Q225.86 0.51 228.35-0.51L228.35-0.51L228.35-0.51Q235.58-3.46 239.49-9.41L239.49-9.41L239.49-9.41Q239.87-9.92 240.19-9.60L240.19-9.60L240.19-9.60Q240.45-9.47 240.45-9.28L240.45-9.28L240.45-9.28Q240.45-9.09 240.26-8.83L240.26-8.83L240.26-8.83Q238.34-5.63 235.39-3.14L235.39-3.14L235.39-3.14Q229.70 1.73 224.32 1.73L224.32 1.73L224.32 1.73Q219.71 1.73 217.86-1.02L217.86-1.02L217.86-1.02Q217.15-2.11 217.15-3.65L217.15-3.65L217.15-3.65Q217.15-5.18 217.98-7.30L217.98-7.30L217.98-7.30Q219.58-10.94 224.83-14.78L224.83-14.78L224.83-14.78Q230.08-18.62 233.15-18.62ZM256.58-18.18L256.58-18.18L256.58-18.18Q258.05-18.18 258.05-16.61L258.05-16.61L258.05-16.61Q258.05-15.04 256.58-12.29L256.58-12.29L256.58-12.29Q255.10-9.54 254.40-7.81L254.40-7.81L254.40-7.81Q253.18-4.86 253.18-3.10L253.18-3.10L253.18-3.10Q253.18-1.34 253.70-0.77L253.70-0.77L253.70-0.77Q254.66 0.26 256.32-0.67L256.32-0.67L256.32-0.67Q257.98-1.60 260.96-4.26L260.96-4.26L260.96-4.26Q263.94-6.91 265.73-9.47L265.73-9.47L265.73-9.47Q265.98-9.79 266.34-9.63L266.34-9.63L266.34-9.63Q266.69-9.47 266.69-9.31L266.69-9.31L266.69-9.31Q266.69-9.15 266.56-8.96L266.56-8.96L266.56-8.96Q265.60-7.23 263.10-4.54L263.10-4.54L263.10-4.54Q260.61-1.86 258.30-0.22L258.30-0.22L258.30-0.22Q256 1.41 253.76 1.41L253.76 1.41L253.76 1.41Q251.58 1.34 250.69 0.42L250.69 0.42L250.69 0.42Q249.79-0.51 249.79-1.92L249.79-1.92L249.79-1.92Q249.79-3.33 250.05-4.64L250.05-4.64L250.05-4.64Q250.30-5.95 251.01-7.68L251.01-7.68L251.01-7.68Q252.16-10.43 253.02-11.97L253.02-11.97L253.02-11.97Q253.89-13.50 253.89-13.98L253.89-13.98L253.89-13.98Q253.89-14.46 253.38-14.46L253.38-14.46L253.38-14.46Q252.35-14.46 249.47-11.97L249.47-11.97L249.47-11.97Q247.49-10.11 243.62-4.96L243.62-4.96L243.62-4.96Q239.74 0.19 239.23 0.51L239.23 0.51L239.23 0.51Q236.93 1.66 236.35 1.66L236.35 1.66L236.35 1.66Q235.78 1.66 235.78 1.47L235.78 1.47L235.78 1.47Q235.78 1.28 235.90 0.93L235.90 0.93L235.90 0.93Q236.03 0.58 237.15-2.56L237.15-2.56L237.15-2.56Q238.27-5.70 239.58-9.44L239.58-9.44L239.58-9.44Q240.90-13.18 241.18-13.95L241.18-13.95L241.18-13.95Q241.47-14.72 241.57-15.26L241.57-15.26L241.57-15.26Q241.66-15.81 241.79-16.19L241.79-16.19L241.79-16.19Q241.92-16.58 242.27-17.06L242.27-17.06L242.27-17.06Q242.62-17.54 243.20-17.57L243.20-17.57L243.20-17.57Q243.78-17.60 244.67-17.44L244.67-17.44L244.67-17.44Q245.57-17.28 245.57-16.64L245.57-16.64L245.57-16.64Q245.57-16.19 244.86-14.69L244.86-14.69L244.86-14.69Q244.16-13.18 240.83-4.35L240.83-4.35L240.83-4.35Q243.14-7.17 246.66-10.85L246.66-10.85L246.66-10.85Q250.18-14.53 252.61-16.45L252.61-16.45L252.61-16.45Q255.04-18.18 256.58-18.18ZM263.23 24.38L263.23 24.38L263.23 24.38Q262.72 24.38 261.95 24.19L261.95 24.19L261.95 24.19Q258.69 23.36 258.69 20.77L258.69 20.77L258.69 20.77Q258.69 18.18 262.05 14.27L262.05 14.27L262.05 14.27Q265.41 10.37 276.22 3.20L276.22 3.20L276.22 3.20Q280.83-6.21 282.62-11.71L282.62-11.71L282.62-11.71Q279.04-7.36 277.50-5.70L277.50-5.70L277.50-5.70Q271.74 0.70 268.22 0.70L268.22 0.70L268.22 0.70Q267.20 0.70 266.02 0.10L266.02 0.10L266.02 0.10Q264.83-0.51 264-1.63L264-1.63L264-1.63Q263.17-2.75 263.17-4.03L263.17-4.03L263.17-4.03Q263.17-7.42 267.90-11.65L267.90-11.65L267.90-11.65Q270.72-14.21 273.79-16L273.79-16L273.79-16Q276.86-17.79 278.66-18.24L278.66-18.24L278.66-18.24Q280.45-18.69 282.11-18.69L282.11-18.69L282.11-18.69Q283.78-18.69 285.06-17.79L285.06-17.79L285.06-17.79Q286.34-16.90 286.34-16L286.34-16L286.34-16Q286.34-15.49 285.82-15.68L285.82-15.68L285.82-15.68Q285.12-16.90 282.72-16.90L282.72-16.90L282.72-16.90Q280.32-16.90 277.28-15.33L277.28-15.33L277.28-15.33Q274.24-13.76 271.81-11.62L271.81-11.62L271.81-11.62Q269.38-9.47 267.68-6.75L267.68-6.75L267.68-6.75Q265.98-4.03 265.98-2.75L265.98-2.75L265.98-2.75Q265.98-0.51 267.26-0.51L267.26-0.51L267.26-0.51Q269.06-0.51 272.77-3.46L272.77-3.46L272.77-3.46Q278.27-7.74 283.33-13.89L283.33-13.89L283.33-13.89Q284.16-15.10 286.78-13.82L286.78-13.82L286.78-13.82Q287.81-13.31 287.62-12.93L287.62-12.93L287.62-12.93Q286.78-11.07 284.58-6.50L284.58-6.50L284.58-6.50Q282.37-1.92 281.28 0.38L281.28 0.38L281.28 0.38Q282.75-0.38 286.30-3.49L286.30-3.49L286.30-3.49Q289.86-6.59 292.54-9.73L292.54-9.73L292.54-9.73Q293.95-11.39 293.95-10.24L293.95-10.24L293.95-10.24Q293.95-8.64 286.27-1.79L286.27-1.79L286.27-1.79Q281.86 2.18 280 3.20L280 3.20L280 3.20Q274.56 14.40 272.70 17.28L272.70 17.28L272.70 17.28Q267.90 24.38 263.23 24.38ZM275.01 5.63L275.01 5.63L275.01 5.63Q267.33 11.39 264 14.75L264 14.75L264 14.75Q260.67 18.11 260.67 21.06L260.67 21.06L260.67 21.06Q260.67 21.95 261.25 22.34L261.25 22.34L261.25 22.34Q261.82 22.72 262.46 22.72L262.46 22.72L262.46 22.72Q263.10 22.72 264.32 21.76L264.32 21.76L264.32 21.76Q265.54 20.80 266.40 19.87L266.40 19.87L266.40 19.87Q267.26 18.94 267.90 18.14L267.90 18.14L267.90 18.14Q268.54 17.34 269.34 16.10L269.34 16.10L269.34 16.10Q270.14 14.85 270.59 14.14L270.59 14.14L270.59 14.14Q271.04 13.44 271.84 11.94L271.84 11.94L271.84 11.94Q272.64 10.43 272.93 9.89L272.93 9.89L272.93 9.89Q273.22 9.34 274.02 7.68L274.02 7.68L274.02 7.68Q274.82 6.02 275.01 5.63ZM294.14-28.45L294.14-28.45L294.14-28.45Q294.21-28.80 294.66-29.12L294.66-29.12L294.66-29.12Q295.10-29.44 296.32-29.44L296.32-29.44L296.32-29.44Q297.54-29.44 297.54-28.35L297.54-28.35L297.54-28.35Q297.54-27.58 297.22-26.56L297.22-26.56L297.22-26.56Q296.90-25.54 296.77-25.06L296.77-25.06L296.77-25.06Q296.64-24.58 296.03-22.62L296.03-22.62L296.03-22.62Q295.42-20.67 295.17-19.71L295.17-19.71L295.17-19.71Q294.91-18.62 294.43-18.62L294.43-18.62L294.43-18.62Q293.95-18.62 293.95-19.39L293.95-19.39L294.21-25.79L294.21-25.79Q294.21-26.24 294.14-27.17L294.14-27.17L294.14-27.17Q294.08-28.10 294.14-28.45ZM301.50 0.64L301.50 0.64L301.50 0.64Q300.67 1.60 301.15 2.18L301.15 2.18L301.15 2.18Q301.63 2.75 302.24 2.75L302.24 2.75L302.24 2.75Q302.85 2.75 303.49 2.56L303.49 2.56L303.49 2.56Q306.24 1.73 308.83-0.74L308.83-0.74L308.83-0.74Q311.42-3.20 311.42-5.76L311.42-5.76L311.42-5.76Q311.42-7.17 308.29-8.83L308.29-8.83L308.29-8.83Q306.82-9.60 306.62-9.73L306.62-9.73L306.62-9.73Q304.90-10.88 304.45-12.03L304.45-12.03L304.45-12.03Q303.55-10.50 301.57-7.62L301.57-7.62L301.57-7.62Q301.12-7.10 300.74-7.39L300.74-7.39L300.74-7.39Q300.35-7.68 300.67-8.19L300.67-8.19L300.67-8.19Q303.30-11.78 304.13-14.21L304.13-14.21L304.13-14.21Q304.58-17.73 309.25-20.54L309.25-20.54L309.25-20.54Q313.92-23.36 317.76-23.36L317.76-23.36L317.76-23.36Q320.19-23.36 321.18-22.50L321.18-22.50L321.18-22.50Q322.18-21.63 322.18-20.80L322.18-20.80L322.18-20.80Q322.18-19.97 321.70-18.88L321.70-18.88L321.70-18.88Q321.22-17.79 319.74-16.83L319.74-16.83L319.74-16.83Q319.36-16.58 319.10-16.96L319.10-16.96L319.10-16.96Q318.98-17.34 319.65-18.02L319.65-18.02L319.65-18.02Q320.32-18.69 320.51-19.84L320.51-19.84L320.51-19.84Q320.70-20.99 319.49-21.25L319.49-21.25L319.49-21.25Q319.30-21.25 319.10-21.25L319.10-21.25L319.10-21.25Q316.61-21.25 312.86-19.39L312.86-19.39L312.86-19.39Q309.12-17.54 307.01-14.59L307.01-14.59L307.01-14.59Q306.18-13.50 306.18-12.38L306.18-12.38L306.18-12.38Q306.18-11.26 307.71-10.37L307.71-10.37L307.71-10.37Q308.35-9.98 309.89-9.15L309.89-9.15L309.89-9.15Q311.42-8.32 312.06-7.94L312.06-7.94L312.06-7.94Q312.70-7.55 313.60-6.72L313.60-6.72L313.60-6.72Q314.50-5.89 314.56-5.18L314.56-5.18L314.56-5.18Q314.88-3.26 312.77-0.96L312.77-0.96L312.77-0.96Q309.76 2.37 303.81 3.71L303.81 3.71L303.81 3.71Q302.46 4.03 301.09 4.03L301.09 4.03L301.09 4.03Q299.71 4.03 299.20 3.01L299.20 3.01L299.20 3.01Q299.01 2.75 299.01 2.21L299.01 2.21L299.01 2.21Q299.01 1.66 300.03 0.45L300.03 0.45L300.03 0.45Q300.99-0.51 303.10-1.41L303.10-1.41L303.10-1.41Q303.30-1.47 303.42-1.34L303.42-1.34L303.42-1.34Q303.55-1.22 303.49-1.02L303.49-1.02L303.49-1.02Q303.42-0.83 302.82-0.58L302.82-0.58L302.82-0.58Q302.21-0.32 301.50 0.64ZM336.67-11.68L336.67-11.68L336.67-11.68Q339.52-14.21 342.59-16L342.59-16L342.59-16Q345.66-17.79 347.46-18.24L347.46-18.24L347.46-18.24Q349.25-18.69 350.98-18.69L350.98-18.69L350.98-18.69Q352.70-18.69 354.24-17.54L354.24-17.54L354.24-17.54Q363.01-37.89 371.01-37.89L371.01-37.89L371.01-37.89Q373.70-37.89 374.66-36.35L374.66-36.35L374.66-36.35Q375.10-35.58 375.10-35.01L375.10-35.01L375.10-35.01Q375.10-33.41 373.73-30.94L373.73-30.94L373.73-30.94Q372.35-28.48 369.47-25.54L369.47-25.54L369.47-25.54Q366.59-22.59 361.22-18.27L361.22-18.27L361.22-18.27Q355.84-13.95 355.26-13.44L355.26-13.44L355.26-13.44Q353.22-8.70 352.06-4.29L352.06-4.29L352.06-4.29Q350.91 0.13 350.91 2.30L350.91 2.30L350.91 2.30Q350.91 4.48 351.68 5.76L351.68 5.76L351.68 5.76Q352.06 6.59 352.83 6.75L352.83 6.75L352.83 6.75Q353.60 6.91 354.14 6.56L354.14 6.56L354.14 6.56Q354.69 6.21 354.98 5.95L354.98 5.95L354.98 5.95Q355.26 5.70 355.68 5.47L355.68 5.47L355.68 5.47Q356.10 5.25 356.29 5.38L356.29 5.38L356.29 5.38Q356.48 5.50 356.22 6.08L356.22 6.08L356.22 6.08Q355.71 6.72 355.26 7.17L355.26 7.17L355.26 7.17Q354.24 7.87 352.86 7.87L352.86 7.87L352.86 7.87Q351.49 7.87 351.04 7.81L351.04 7.81L351.04 7.81Q347.97 7.30 347.97 3.33L347.97 3.33L347.97 3.33Q347.97-0.51 348.99-3.78L348.99-3.78L348.99-3.78Q350.40-8.26 351.55-11.20L351.55-11.20L351.55-11.20Q341.31 0.70 337.02 0.70L337.02 0.70L337.02 0.70Q336 0.70 334.82 0.10L334.82 0.10L334.82 0.10Q333.63-0.51 332.80-1.63L332.80-1.63L332.80-1.63Q331.97-2.75 331.97-4.03L331.97-4.03L331.97-4.03Q331.97-5.31 332.54-6.46L332.54-6.46L332.54-6.46Q333.82-9.15 336.67-11.68ZM352.83-14.34L353.73-16.51L353.73-16.51Q352.96-16.90 351.04-16.90L351.04-16.90L351.04-16.90Q349.12-16.90 346.08-15.33L346.08-15.33L346.08-15.33Q343.04-13.76 340.35-11.39L340.35-11.39L340.35-11.39Q338.11-9.28 336.42-6.62L336.42-6.62L336.42-6.62Q334.72-3.97 334.72-2.75L334.72-2.75L334.72-2.75Q334.72-0.38 336.06-0.38L336.06-0.38L336.06-0.38Q337.41-0.38 340.16-2.56L340.16-2.56L340.16-2.56Q347.26-8.38 352.83-14.34L352.83-14.34ZM372.48-32.64L372.48-32.64L372.48-32.64Q373.31-34.18 373.31-35.23L373.31-35.23L373.31-35.23Q373.31-36.29 372.38-36.29L372.38-36.29L372.38-36.29Q371.46-36.29 369.92-35.14L369.92-35.14L369.92-35.14Q362.88-29.76 357.18-17.15L357.18-17.15L357.18-17.15Q361.34-19.84 365.89-24.32L365.89-24.32L365.89-24.32Q370.43-28.80 372.48-32.64ZM371.07-7.04L371.07-7.04L371.07-7.04Q372.22-9.41 372.22-10.69L372.22-10.69L372.22-10.69Q372.22-11.97 371.94-12.70L371.94-12.70L371.94-12.70Q371.65-13.44 372.19-13.95L372.19-13.95L372.19-13.95Q372.74-14.46 373.57-14.34L373.57-14.34L373.57-14.34Q374.85-14.02 374.85-11.46L374.85-11.46L374.85-11.46Q374.85-8.90 371.84-4.74L371.84-4.74L371.84-4.74Q371.90-3.01 373.63-3.01L373.63-3.01L373.63-3.01Q375.36-3.01 378.88-6.72L378.88-6.72L378.88-6.72Q380.54-8.64 380.96-9.22L380.96-9.22L380.96-9.22Q381.38-9.79 381.70-9.63L381.70-9.63L381.70-9.63Q382.02-9.47 382.02-9.34L382.02-9.34L382.02-9.34Q382.02-8.70 379.71-6.02L379.71-6.02L379.71-6.02Q376.06-1.54 373.25-1.54L373.25-1.54L373.25-1.54Q371.39-1.54 370.62-3.14L370.62-3.14L370.62-3.14Q369.34-1.79 368.13-0.64L368.13-0.64L368.13-0.64Q365.63 1.47 362.56 1.47L362.56 1.47L362.56 1.47Q360.83 1.47 359.68 0.64L359.68 0.64L359.68 0.64Q357.44-0.70 357.44-4.16L357.44-4.16L357.44-4.16Q357.44-7.94 360-11.84L360-11.84L360-11.84Q361.47-14.14 363.46-15.87L363.46-15.87L363.46-15.87Q366.59-18.62 369.41-18.62L369.41-18.62L369.41-18.62Q370.11-18.62 370.75-18.43L370.75-18.43L370.75-18.43Q372.67-17.79 372.67-16L372.67-16L372.67-16Q372.67-14.53 371.90-14.53L371.90-14.53L371.90-14.53Q371.58-14.66 371.58-15.49L371.58-15.49L371.58-15.49Q371.58-16.64 370.30-16.64L370.30-16.64L370.30-16.64Q368.06-16.64 364.54-12.54L364.54-12.54L364.54-12.54Q361.02-8.45 360.32-4.29L360.32-4.29L360.32-4.29Q360.19-3.58 360.19-2.72L360.19-2.72L360.19-2.72Q360.19-1.86 360.77-0.74L360.77-0.74L360.77-0.74Q361.34 0.38 362.91 0.38L362.91 0.38L362.91 0.38Q364.48 0.38 366.34-1.02L366.34-1.02L366.34-1.02Q368.19-2.43 369.66-4.61L369.66-4.61L369.47-4.99L369.47-4.99Q369.22-6.02 369.73-6.66L369.73-6.66L369.73-6.66Q370.24-7.30 371.07-7.04ZM396.35-14.08L396.35-14.08L396.67-15.36L396.67-15.36Q396.67-16.64 395.71-16.64L395.71-16.64L395.71-16.64Q393.09-16.64 388.54-12.54L388.54-12.54L388.54-12.54Q384-8.45 382.78-4.29L382.78-4.29L382.78-4.29Q382.46-3.20 382.46-2.34L382.46-2.34L382.46-2.34Q382.46-1.47 382.85-0.90L382.85-0.90L382.85-0.90Q383.62 0.26 385.22 0.26L385.22 0.26L385.22 0.26Q386.82 0.26 388.67-0.19L388.67-0.19L388.67-0.19Q392.77-1.34 395.49-3.49L395.49-3.49L395.49-3.49Q398.21-5.63 401.22-9.47L401.22-9.47L401.22-9.47Q401.47-9.79 401.82-9.66L401.82-9.66L401.82-9.66Q402.18-9.54 402.18-9.31L402.18-9.31L402.18-9.31Q402.18-9.09 401.98-8.64L401.98-8.64L401.98-8.64Q398.91-4.48 395.55-1.89L395.55-1.89L395.55-1.89Q392.19 0.70 387.78 1.47L387.78 1.47L387.78 1.47Q386.50 1.66 385.41 1.66L385.41 1.66L385.41 1.66Q382.27 1.66 380.64 0.13L380.64 0.13L380.64 0.13Q379.01-1.41 379.01-3.26L379.01-3.26L379.01-3.26Q379.01-5.12 379.90-7.30L379.90-7.30L379.90-7.30Q381.50-10.94 386.75-14.78L386.75-14.78L386.75-14.78Q392-18.62 395.07-18.62L395.07-18.62L395.07-18.62Q395.84-18.62 396.54-18.43L396.54-18.43L396.54-18.43Q398.34-17.79 398.34-16.38L398.34-16.38L398.34-16.38Q398.34-15.42 397.63-14.21L397.63-14.21L397.63-14.21Q396.93-12.99 396.58-13.34L396.58-13.34L396.58-13.34Q396.22-13.70 396.35-14.08ZM401.09 0.64L401.09 0.64L401.09 0.64Q400.26 1.60 400.74 2.18L400.74 2.18L400.74 2.18Q401.22 2.75 401.82 2.75L401.82 2.75L401.82 2.75Q402.43 2.75 403.07 2.56L403.07 2.56L403.07 2.56Q405.82 1.73 408.42-0.74L408.42-0.74L408.42-0.74Q411.01-3.20 411.01-5.76L411.01-5.76L411.01-5.76Q411.01-7.17 407.87-8.83L407.87-8.83L407.87-8.83Q406.40-9.60 406.21-9.73L406.21-9.73L406.21-9.73Q404.48-10.88 404.03-12.03L404.03-12.03L404.03-12.03Q403.14-10.50 401.15-7.62L401.15-7.62L401.15-7.62Q400.70-7.10 400.32-7.39L400.32-7.39L400.32-7.39Q399.94-7.68 400.26-8.19L400.26-8.19L400.26-8.19Q402.88-11.78 403.71-14.21L403.71-14.21L403.71-14.21Q404.16-17.73 408.83-20.54L408.83-20.54L408.83-20.54Q413.50-23.36 417.34-23.36L417.34-23.36L417.34-23.36Q419.78-23.36 420.77-22.50L420.77-22.50L420.77-22.50Q421.76-21.63 421.76-20.80L421.76-20.80L421.76-20.80Q421.76-19.97 421.28-18.88L421.28-18.88L421.28-18.88Q420.80-17.79 419.33-16.83L419.33-16.83L419.33-16.83Q418.94-16.58 418.69-16.96L418.69-16.96L418.69-16.96Q418.56-17.34 419.23-18.02L419.23-18.02L419.23-18.02Q419.90-18.69 420.10-19.84L420.10-19.84L420.10-19.84Q420.29-20.99 419.07-21.25L419.07-21.25L419.07-21.25Q418.88-21.25 418.69-21.25L418.69-21.25L418.69-21.25Q416.19-21.25 412.45-19.39L412.45-19.39L412.45-19.39Q408.70-17.54 406.59-14.59L406.59-14.59L406.59-14.59Q405.76-13.50 405.76-12.38L405.76-12.38L405.76-12.38Q405.76-11.26 407.30-10.37L407.30-10.37L407.30-10.37Q407.94-9.98 409.47-9.15L409.47-9.15L409.47-9.15Q411.01-8.32 411.65-7.94L411.65-7.94L411.65-7.94Q412.29-7.55 413.18-6.72L413.18-6.72L413.18-6.72Q414.08-5.89 414.14-5.18L414.14-5.18L414.14-5.18Q414.46-3.26 412.35-0.96L412.35-0.96L412.35-0.96Q409.34 2.37 403.39 3.71L403.39 3.71L403.39 3.71Q402.05 4.03 400.67 4.03L400.67 4.03L400.67 4.03Q399.30 4.03 398.78 3.01L398.78 3.01L398.78 3.01Q398.59 2.75 398.59 2.21L398.59 2.21L398.59 2.21Q398.59 1.66 399.62 0.45L399.62 0.45L399.62 0.45Q400.58-0.51 402.69-1.41L402.69-1.41L402.69-1.41Q402.88-1.47 403.01-1.34L403.01-1.34L403.01-1.34Q403.14-1.22 403.07-1.02L403.07-1.02L403.07-1.02Q403.01-0.83 402.40-0.58L402.40-0.58L402.40-0.58Q401.79-0.32 401.09 0.64Z"></path>
  <style>
    @keyframes path-animate {
      0% {
        stroke-dashoffset: var(--path-length);
      }

      33% {
        fill: transparent;
      }

      66% {
        stroke-dashoffset: 0;
      }

      100% {
        fill: var(--font-color);
        stroke-dashoffset: 0;
      }
    }
    svg {
      --font-color: #364149;
      --path-length: 260;
    }
    .path {
      fill: transparent;
      stroke: var(--font-color);
      stroke-dasharray: var(--path-length);
      stroke-linecap: round;
      stroke-dashoffset: var(--path-length);
      animation: 3s path-animate 1.5s forwards;
    }
  </style>
</svg>