<?xml version="1.0" standalone="no"?><!DOCTYPE svg PUBLIC "-//W3C//DTD SVG 1.1//EN" "http://www.w3.org/Graphics/SVG/1.1/DTD/svg11.dtd"><svg t="1679022885439" class="icon" viewBox="0 0 1024 1024" version="1.1" xmlns="http://www.w3.org/2000/svg" p-id="2416" xmlns:xlink="http://www.w3.org/1999/xlink" width="200" height="200"><path d="M480 96v160h64V96zM240 195.008L195.008 240l112.992 114.016 46.016-46.016z m544 0l-114.016 112.992 46.016 46.016L828.992 240zM512 288c-123.36 0-224 100.64-224 224s100.64 224 224 224 224-100.64 224-224-100.64-224-224-224z m0 64c88.736 0 160 71.264 160 160s-71.264 160-160 160-160-71.264-160-160 71.264-160 160-160zM96 480v64h160v-64z m672 0v64h160v-64zM308 670.016L195.008 784 240 828.992l114.016-112.992z m408 0l-46.016 45.984 114.016 112.992 44.992-44.992zM480 768v160h64v-160z" p-id="2417"></path></svg>